<svg xmlns="http://www.w3.org/2000/svg" id="Layer_1" data-name="Layer 1" version="1.1" viewBox="0 0 50 50" width="50" height="50">
  <defs>
    <style>
      .cls-1 {
        fill: #6e4f9e;
        stroke-width: 0px;
      }
    </style>
  </defs>
  <path class="cls-1" d="M18.7,40.2c-.2-.4-.4-.6-.6-.9-3-4.6-5.9-9.2-8.2-14.3-.4-1-.9-1.3-2-1.2-1,0-2,0-3,0-.5,0-.7.2-.7.7,0,.1,0,.2,0,.3,0,.5,0,.8.6,1.1,1.1.6,1.6,1.9,1.3,3.1-.3,1.2-1.5,2-2.7,2-1.2,0-2.4-.9-2.6-2.2-.3-1.2.3-2.5,1.4-3,.4-.2.5-.4.5-.8,0-.2,0-.5,0-.7,0-1.2.9-2,2.1-2,1.1,0,2.2,0,3.3,0,.2,0,.3,0,.5,0-.4-1.7-.8-3.3-1.2-5-.5,0-1.2,0-1.8,0-.1,0-.3.2-.4.4-.6,1-1.4,1.6-2.6,1.6-1.1,0-2-.6-2.4-1.6-.6-1.3,0-3,1.3-3.6,1.3-.7,2.9-.2,3.7,1.2,0,.2.2.4.3.5h2c.4-1.7.7-3.3,1.1-5-1.1,0-2.3,0-3.5,0-1.4,0-2.2-.8-2.2-2.2,0-.1,0-.3,0-.4,0-.5,0-.7-.6-1-1.1-.5-1.7-1.9-1.4-3.1.3-1.3,1.5-2.1,2.7-2.1,1.2,0,2.3.9,2.6,2.1.3,1.2-.2,2.5-1.4,3.1-.2,0-.3.2-.5.3,0,.4,0,.7,0,1.1,0,.4.2.6.6.6,1.3,0,2.7,0,4,0,.2,0,.4-.2.6-.4C11.9,4.6,15.3,1.8,19.8.6c7.4-2,15.1,1.3,18.8,8,.2.4.4.5.9.5,1.6,0,3.1,0,4.7,0,.6,0,.7-.1.7-.7,0-.3,0-.6,0-.9,0,0,0-.1,0-.2-1-.4-1.7-1-1.9-2.1-.3-1.4.5-2.8,1.9-3.2,1.3-.4,2.8.2,3.4,1.5.6,1.3,0,2.9-1.2,3.5-.5.2-.6.5-.6,1,0,.2,0,.5,0,.7,0,1.1-.9,1.9-2,1.9-1.4,0-2.8,0-4.2,0-.2,0-.4,0-.5,0,.4,1.7.7,3.3,1.1,5,.9,0,1.8,0,2.8,0,.1,0,.3-.2.4-.4.5-1.1,1.7-1.7,2.8-1.6,1.2.1,2.2,1,2.4,2.2.3,1.3-.5,2.7-1.8,3.1-1.3.5-2.8,0-3.4-1.3-.2-.4-.4-.5-.8-.5-.8,0-1.7,0-2.4,0-.4,1.7-.8,3.3-1.2,5,1,0,2.1,0,3.1,0,.6,0,1.1,0,1.7,0,1.2,0,2,.8,2,1.9,0,0,0,0,0,0-.1.8,0,1.3.9,1.8,1.1.6,1.4,2,.9,3.2-.5,1.2-1.6,1.9-2.9,1.7-1.2-.1-2.2-1-2.4-2.3-.2-1.2.4-2.4,1.5-2.9.2,0,.5-.3.5-.4,0-.4,0-.9,0-1.4,0,0-.3-.2-.5-.2-1.7,0-3.4,0-5.2,0-.2,0-.4.2-.5.3-2.4,5.5-5.6,10.6-8.9,15.6,0,.1-.2.3-.3.5,1,.2,2,.3,2.9.5,1.5.3,3.1.7,4.4,1.5.4.3.8.6,1.2.9.8.9.8,2,0,2.8-.7.6-1.5,1.1-2.3,1.5-2.1.9-4.4,1.3-6.7,1.5-2.9.3-5.8.3-8.7.1-2.6-.2-5.1-.6-7.5-1.5-.8-.3-1.6-.7-2.2-1.2-1.4-1.1-1.4-2.6,0-3.7,1.1-.9,2.5-1.3,3.8-1.7.7-.2,1.4-.3,2.1-.5.7-.1,1.4-.2,2.2-.4ZM9,16.3c0,.8.1,1.6.3,2.3.6,2.8,1.8,5.3,3,7.8,2.8,5.6,6.2,10.8,9.7,15.9,1.1,1.6,3,1.7,4.1,0,1.9-2.9,3.8-5.7,5.6-8.6,2.4-3.8,4.6-7.7,6.2-11.9.8-2.2,1.4-4.4,1.2-6.7C38.2,6,29.3-.3,20.4,2c-6.6,1.7-11.1,7.4-11.4,14.3ZM24.1,47.7c3.3,0,6.6-.2,9.7-1.2,1-.3,2-.8,2.9-1.3.7-.4.7-.9,0-1.3-.5-.3-1-.6-1.5-.8-2.1-.8-4.2-1.2-6.4-1.4-.1,0-.4.1-.5.2-.4.5-.7,1-1,1.4-1.7,2.4-4.8,2.4-6.5,0-.3-.5-.7-1-1-1.4,0-.1-.3-.2-.5-.2-1.5.2-3,.5-4.5.8-1.2.3-2.3.6-3.3,1.4-.6.5-.7,1,0,1.4.8.5,1.6.9,2.4,1.1,3.3,1,6.7,1.2,10,1.3ZM3.6,3.5c-.7,0-1.2.6-1.2,1.2,0,.7.6,1.2,1.2,1.2.7,0,1.2-.6,1.2-1.3,0-.7-.5-1.2-1.2-1.2ZM44.5,4.7c0,.7.5,1.2,1.2,1.3.7,0,1.3-.6,1.3-1.2,0-.7-.5-1.2-1.2-1.2-.7,0-1.2.5-1.2,1.2ZM47.7,16.5c0-.7-.5-1.2-1.2-1.2-.7,0-1.3.5-1.3,1.2,0,.7.6,1.2,1.2,1.2.7,0,1.2-.5,1.2-1.2ZM1.6,16.5c0,.7.5,1.2,1.2,1.2.7,0,1.2-.6,1.2-1.2,0-.7-.6-1.2-1.3-1.2-.7,0-1.2.5-1.2,1.2ZM3.6,26.9c-.7,0-1.2.5-1.3,1.2,0,.7.6,1.3,1.2,1.3.7,0,1.2-.5,1.2-1.2,0-.7-.5-1.2-1.2-1.2ZM44.5,28.1c0,.7.5,1.2,1.2,1.2.7,0,1.3-.6,1.3-1.2,0-.7-.6-1.2-1.2-1.2-.7,0-1.2.5-1.2,1.2Z"/>
  <path class="cls-1" d="M19.5,32c0,0-.2,0-.2,0-.6-.3-1-.8-1.1-1.5,0-.7.3-1.2.9-1.5.2-.1.3-.2.3-.5-.2-1.7-.9-3.2-2.1-4.4-2.3-2.2-3.4-4.9-3.3-8.1.2-6.2,5.7-11,11.8-10.3,5,.5,9,4.5,9.5,9.4.4,3.4-.6,6.4-3.1,8.9-1.3,1.3-2.1,2.8-2.3,4.6,0,.1,0,.3.2.3.7.3,1,.9,1,1.6,0,.7-.5,1.2-1.2,1.5,0,0,0,0-.2,0,.2.6.1,1.2-.4,1.6-.3.2-.6.4-1,.5-.2,0-.3.1-.4.3-.4,1.6-1.8,2.7-3.5,2.7-1.6,0-3-1.1-3.4-2.7,0-.1-.1-.3-.3-.3-1.2-.3-1.6-.9-1.5-2.2ZM24.1,28.7c0-.1,0-.2,0-.3,0-4.2,0-8.3,0-12.5,0-.3-.1-.4-.3-.5-.8-.4-1.3-1.3-1.1-2.2.2-.9,1-1.6,2-1.6,1,0,1.7.6,2,1.6.2.9-.2,1.8-1.1,2.2-.3.1-.3.3-.3.5,0,4.1,0,8.2,0,12.3v.4h1.4c0-.1,0-.2,0-.3.1-2.6.3-5.1.5-7.7,0-.2.1-.4.2-.6.4-.7.9-1.4,1.4-2,.2-.2.2-.4,0-.6-.5-.8-.3-1.8.4-2.5.7-.6,1.8-.7,2.5-.2.8.5,1.1,1.6.7,2.4-.4.9-1.3,1.3-2.2,1.2-.2,0-.3,0-.4.2-.4.7-.9,1.3-1.3,2,0,.1-.1.3-.2.5-.1,1.6-.2,3.2-.3,4.8,0,.9-.1,1.9-.2,2.9h1c0-.3,0-.7.1-1,.3-1.8,1.2-3.3,2.5-4.6,2.3-2.3,3.2-5.1,2.7-8.3-.8-5.4-6-9-11.3-8-4.5.9-7.7,4.7-7.8,9.3,0,2.7.9,5.1,2.8,7,.8.8,1.4,1.6,1.9,2.6.4.9.7,1.9.8,3h1c0,0,0-.1,0-.2-.1-2.2-.3-4.5-.4-6.7,0-.8-.2-1.4-.7-2-.3-.3-.5-.7-.7-1-.2-.3-.4-.5-.8-.3-.1,0-.3,0-.5,0-.9-.2-1.6-.8-1.7-1.8-.1-.8.4-1.7,1.2-2,.8-.4,1.7-.2,2.3.5.6.7.7,1.6.2,2.4-.1.2,0,.3,0,.5.5.7,1,1.4,1.4,2.1.1.2.2.5.2.7.1,1.7.2,3.5.3,5.2,0,.9.1,1.8.2,2.8h1.4ZM24.6,29.8c-1.5,0-3,0-4.6,0-.1,0-.2,0-.3,0-.3,0-.4.2-.5.5,0,.3.1.5.4.5.1,0,.3,0,.4,0,3.1,0,6.1,0,9.2,0,.1,0,.2,0,.3,0,.3,0,.4-.3.4-.6,0-.3-.2-.4-.5-.5-.1,0-.2,0-.3,0-1.5,0-3,0-4.6,0ZM22.3,34.2c.2,1.2,1.5,2,2.7,1.8,1-.1,2-1.1,1.9-1.8h-4.7Z"/>
</svg>