<svg xmlns="http://www.w3.org/2000/svg" id="Layer_1" data-name="Layer 1" version="1.1" viewBox="0 0 50 50" width="50" height="50">
  <defs>
    <style>
      .cls-1 {
        fill: #6e4f9e;
        stroke-width: 0px;
      }
    </style>
  </defs>
  <path class="cls-1" d="M49.8,17c-.2-.2-.5-.4-1-.4-1.1,0-2.2,0-3.2,0h-1.4l.3-.5c.3-.5.6-.9.8-1.3.2-.4.3-.7.2-1s-.3-.5-.7-.7c-3.1-1.8-6.1-3.6-9.2-5.3-.8-.5-1.3-.3-1.7.5l-.5.8c-.7,1.2-1.5,2.4-2.2,3.7-.1.2-.2.2-.4.2-4.9-1.1-9.7-2.2-14.6-3.3l-2.8-.6c-.4,0-.7,0-1,0-.2.2-.4.4-.5.8v.7c-.5,1.9-.9,3.9-1.3,5.8,0,.2,0,.2-.4.3-1,.2-1.9.4-2.7.7-1.6.5-3.3,1.1-4.9,1.6l-1.8.6c-1,.3-1.2.7-.9,1.7l5.4,19.6c.3.9.5,1.1,1.5,1.1h37.4c1,0,1.2-.2,1.4-1.2,1.2-6.7,2.4-13.3,3.7-20l.2-.9c.1-.6.2-1.2.3-1.8,0-.4,0-.8-.2-1ZM34.1,16.2c.1-.4.2-.8.4-1.3.1-.4.1-.8,0-1-.2-.3-.4-.4-.9-.5h-.3c0,0,2.1-3.5,2.1-3.5l7.9,4.6c0,.2-.2.3-.3.5-.3.5-.6,1-.9,1.5-.1.2-.2.3-.5.3h0c-1.6,0-3.2,0-4.9,0h-2.4c0,0-.1,0-.2,0v-.4ZM26.2,16.4h0c0,.1-.2.1-.2.1h.1ZM15.9,14c.1-.1.3-.2.4-.2h0c.2,0,.3,0,.4.2.1.1.2.3.2.5,0,.3-.3.6-.6.6h0c-.2,0-.3,0-.4-.2-.1-.1-.2-.3-.2-.4,0-.2,0-.3.2-.4ZM18.9,14.1c-.2-1.2-1.1-2.1-2.4-2.3-1.1-.1-2.2.6-2.7,1.6-.3.7-.3,1.5,0,2.2.2.4.5.7.8,1h-1.9l1.1-5.5,11.9,2.7c-.1,0-.3.2-.4.4l-.8,1c-.4.4-.7.9-1.1,1.3-.2.2-.3.2-.3.2,0,0,0,0-.2-.2-.1-.2-.2-.4-.4-.6-.2-.3-.3-.6-.5-.9-.3-.5-.6-.6-.8-.6,0,0,0,0,0,0-.2,0-.5,0-.9.4-.3.3-.6.6-.8.9-.2.3-.5.5-.7.8h0s0,0,0,0c0,0-.1.1-.1.1-.3,0-.6,0-.9,0,.9-.7,1.3-1.6,1.1-2.5ZM27.2,14.1l5.1,1.1-.4,1.4h-.6c-.9,0-1.7,0-2.6,0,0,0-.2-.1-.2-.2-.3-.4-.5-.9-.7-1.4-.1-.2-.3-.5-.4-.7,0,0-.1-.2-.2-.2ZM43.5,39.9h0c-8.1,0-16.3,0-24.4,0H7.7l3-21.2h37c0,0,0,.2,0,.3l-.9,4.7c-1,5.3-1.9,10.6-2.9,15.8,0,.4-.1.4-.5.4ZM8.7,19.1l-2.3,16.2v.7c-1.4-4.9-2.8-9.8-4.1-14.7l6.5-2.1Z"/>
</svg>