<svg xmlns="http://www.w3.org/2000/svg" id="Layer_1" data-name="Layer 1" version="1.1" viewBox="0 0 50 50" width="50" height="50">
  <defs>
    <style>
      .cls-1 {
        fill: #6e4f9e;
        stroke-width: 0px;
      }
    </style>
  </defs>
  <path class="cls-1" d="M49.8,48.3c-.3-.7-.6-1.5-.9-2.2l-2-4.7c-1.6-3.8-3.2-7.6-4.8-11.4-.3-.7-.8-1-1.5-1-.7,0-1.4,0-2.1,0h-3s0,0,0,0c.3-.5.5-.9.8-1.4.6-1,1.2-2.1,1.7-3.1,1.8-3.9,2.6-7.3,2.5-10.6-.2-5-2.4-8.8-6.6-11.3C30.3.2,26.1-.5,21.5.3c-3.2.6-6,1.9-8.1,4-3.3,3.2-4.5,7.3-3.8,12.5.4,2.7,1.3,5.4,2.7,8.2.5,1,1,2,1.6,3,.2.3.3.5.5.8h-5c-1,0-1.2.1-1.6,1.1l-6.1,14.5c-.5,1.2-1,2.5-1.6,3.7-.2.6-.1,1,0,1.2.1.2.5.5,1.1.5.1,0,.3,0,.4,0h46.4c0,0,.2,0,.3,0s.2,0,.3,0c.7,0,1-.3,1.1-.5.1-.2.3-.6,0-1.2ZM9.3,47.6c.3-.9.7-1.7,1-2.6,1.6,0,3.1,0,4.7,0h0l-.2.4c-.3.8-.5,1.5-.8,2.3-1.5,0-3.1,0-4.6,0h-.3s0-.2,0-.2ZM16.9,47c.2-.7.5-1.4.7-2,.3-.8.4-1.3,0-1.7-.3-.4-.8-.5-1.7-.5h-4.8v-.3c.3-.5.5-.9.7-1.4.2-.5.2-.9,0-1.2-.2-.3-.6-.5-1.2-.5-1.1,0-2.3,0-3.5,0h-.9,0c.2-.5.3-.8.5-1.2,0-.2.2-.4.2-.6.1-.4.3-.8.5-1,.2-.1.7,0,1,0,.2,0,.4,0,.6,0h.5c.5,0,1.1,0,1.6,0,.7,0,1.2-.3,1.4-1,.3-1,.7-2,1-3l.3-.9c0-.1,0-.3.1-.4h.2c.5,0,.9,0,1.4,0,0,0,0,0,0,0,.9,1.2,1.8,2.4,2.6,3.6l.4.5s0,0,0,0c-.2.1-.5.3-.7.4-.6.3-1.2.7-1.7,1.1-.8.7-1.2,1.5-1.2,2.4,0,.9.4,1.9,1.1,2.6.8.8,1.9,1.4,3.2,1.9,4.1,1.3,8,1.1,11.8-.4,1.1-.4,1.9-1,2.5-1.8,1.1-1.4,1.1-3.1,0-4.5-.6-.7-1.5-1.3-2.7-1.8h0c1-1.4,2-2.8,3.1-4.2.5,0,1.1,0,1.7,0,0,0,0,0,0,.2v.4c.6,1.2,1,2.5,1.4,3.7.2.7.7,1,1.4,1h0c1.1,0,2.2,0,3.6,0,0,0,.2,0,.2,0,.4.8.7,1.7,1.1,2.5v.3c.1,0-1.4,0-1.4,0-.9,0-1.9,0-2.8,0-.6,0-.9.3-1.1.5-.1.2-.3.6,0,1.2.2.5.4,1,.6,1.5v.2c0,0-2.4,0-2.4,0-1,0-1.9,0-2.9,0-.5,0-.9.2-1.1.5-.2.3-.2.7,0,1.2.2.7.5,1.4.7,2l.4,1.1s0,0,0,.1h-16.8l.3-.8ZM9.7,31.2c.6,0,1.3,0,2,0h.2s-.2.6-.2.6c-.3.9-.6,1.7-.8,2.5-.8,0-1.5,0-2.3,0h-.1s0-.1,0-.1c.4-1,.8-2,1.2-2.9ZM9.7,31.2h0s0,0,0,0c0,0,0,0,0,0ZM20.6,37.3c.6.6,1.1,1.3,1.7,1.9.5.6,1.1,1.2,1.6,1.8.2.3.6.6,1,.6h0c.4,0,.8-.3,1-.6,1.1-1.2,2.2-2.4,3.3-3.7.1-.1.2-.1.2-.1.2.1.5.3.8.4.5.2,1,.5,1.4.8.3.3.8.7.8,1.1,0,.5-.4,1-.8,1.2-.9.7-2,1.1-3.3,1.4-.8.1-1.6.2-2.3.3-.3,0-.7,0-1,.1-1.9,0-4-.3-5.9-1.3-.4-.2-.9-.6-1.2-.9-.5-.5-.5-1,0-1.5.7-.8,1.7-1.2,2.6-1.5,0,0,0,0,.1.1ZM41.6,34.3c-.8,0-1.5,0-2.3,0-.3-.9-.6-1.8-1-2.7v-.3c-.1,0,0,0,0,0,.7,0,1.3,0,1.9,0,0,0,0,0,0,0,.4.9.8,1.9,1.2,2.9v.2c0,0,0,0,0,0ZM35.4,45c1.5,0,2.9,0,4.3,0,.3.8.6,1.6,1,2.5v.3c.1,0-3,0-3,0-.6,0-1.1,0-1.7,0,0,0,0,0,0,0-.3-.8-.6-1.6-.9-2.5v-.2c0,0,.4,0,.4,0ZM41.2,41.6c1.1,0,2.3,0,3.4,0,.9,2,1.7,4.1,2.6,6.2h-1.9c-.6,0-1.3,0-1.9,0,0,0-.1,0-.1,0,0,0,0,0,0,0-.7-1.8-1.4-3.6-2.1-5.4l-.3-.8h.4ZM25.7,38.1l-.7.8c-5.3-5.7-9.3-10.9-11.8-17.2-1.1-2.8-1.6-5.3-1.5-7.7.2-4.7,2.3-8.1,6.4-10,2.4-1.1,4.8-1.7,7.1-1.7s5.8.9,8.6,2.8c2.8,1.9,4.4,4.8,4.6,8.6.1,3.1-.6,6.2-2.3,9.9-1.9,4-4.6,8-8.5,12.5-.6.7-1.2,1.4-1.8,2.1ZM8.8,41.6h.5s-1.5,3.9-1.5,3.9c-.3.7-.6,1.5-.9,2.2,0,0,0,.1,0,.1-1.2,0-2.4,0-3.6,0h-.5s.3-.6.3-.6c.7-1.8,1.5-3.6,2.3-5.4,0,0,.1-.1.1-.2,1.1,0,2.2,0,3.4,0Z"/>
  <path class="cls-1" d="M32.7,19.1c-1-1.7-2.5-2.9-4.3-3.7,1.3-1.2,1.6-2.5,1.7-3.4.1-1.5-.5-3.1-1.5-4.1-2.1-2-5.2-2-7.3,0-1,1-1.6,2.6-1.4,4.1,0,.9.4,2.2,1.7,3.4-3.3,1.4-5.6,4.6-5.6,8.1,0,.3,0,.6.3.9.3.3.6.3.8.3h7.6s8.2,0,8.2,0c.2,0,.6,0,.9-.3.3-.3.3-.6.3-.9,0-1.6-.5-3.1-1.3-4.4ZM24.2,16.7c2-.2,4,.4,5.4,1.7,1.3,1.1,2.1,2.6,2.3,4.3h-14c0-1,.5-2.2,1.3-3.2,1.3-1.6,3.2-2.7,4.9-2.8ZM27.2,9.3c.6.6.9,1.4.9,2.3,0,.8-.3,1.6-.9,2.2-.6.6-1.4.9-2.3.9-1.7,0-3.1-1.4-3.1-3.2s.3-1.6.9-2.2c.6-.6,1.4-.9,2.2-.9.8,0,1.6.3,2.2.9Z"/>
</svg>