<svg xmlns="http://www.w3.org/2000/svg" id="Layer_1" data-name="Layer 1" version="1.1" viewBox="0 0 50 50" width="50" height="50">
  <defs>
    <style>
      .cls-1 {
        fill: #6e4f9e;
        stroke-width: 0px;
      }
    </style>
  </defs>
  <path class="cls-1" d="M48.6,32.8h-.4V13.3c0-2.4-1.5-4.3-3.7-4.9-.4-.1-.9-.1-1.5-.1-9.4,0-18.8,0-28.3,0-2.6,0-4.5,1.5-5.1,3.9,0,0,0,.2,0,.3.1.8-.3,1.1-1.1,1.6-2,1.3-3.2,3.4-3.4,5.8-.2,2.4.7,4.8,2.5,6.4h0c-3.2,1-5.4,3-6.8,5.9C.3,33.4,0,34.8,0,36.2c0,2.2,0,4.4,0,6.6v2.2c0,.9.4,1.4,1.4,1.4,3.9,0,7.7,0,11.6,0s7.7,0,11.6,0c.9,0,1.3-.5,1.4-1.4,0-1.1,0-2.1,0-3.2v-1.3h19.4c2.9,0,4.8-1.9,4.8-4.8v-1.4c0-1-.4-1.4-1.4-1.4ZM25.9,35.2h21.8v.4c0,1.7-.8,2.5-2.5,2.5h-19.3v-2.9ZM14,28.2c.9,0,1.8,0,2.4,0,4.2.6,7.1,4,7.1,8.2,0,1.7,0,3.4,0,5.1v2.3s0,0,0,.1H2.3c0-.8,0-1.6,0-2.3,0-1.8,0-3.8,0-5.6.1-4.1,3.5-7.6,7.7-7.7,1.3,0,2.7,0,4,0ZM12.9,14.9c1.4,0,2.8.6,3.9,1.6,1.1,1,1.6,2.4,1.6,3.9,0,1.6-.6,3-1.8,4-1.1,1-2.4,1.5-3.7,1.4-1.3.1-2.6-.4-3.7-1.3-1.2-1-1.8-2.5-1.8-4.1,0-1.4.6-2.8,1.6-3.9,1-1,2.4-1.6,3.9-1.6h0ZM20.1,17.5c-1.4-3.4-4.3-5-8.2-4.8,0,0,0-.1,0-.1.3-1.2,1.3-1.9,2.7-1.9,9.5,0,19,0,28.5,0,1.7,0,2.8,1,2.8,2.8v19.4h-3v-1.2c0-1,0-2,0-3,0-2.9-1.7-5.3-4.4-6.4,2-2.6,1.3-5.6-.4-7.2-2-1.9-5-1.9-7.1-.1-1,.9-1.7,2.3-1.8,3.6,0,1.3.3,2.6,1.2,3.7-2.3,1-3.8,2.7-4.2,5.1-.1.8-.1,1.6-.1,2.3,0,.3,0,.5,0,.8,0,.6,0,1.3,0,1.9v.5c-.2,0-.3,0-.5,0-.3,0-.4,0-.5-.3-.6-1.6-1.6-3-3-4.2-1.1-.9-2.4-1.6-3.9-2,2.7-2.6,3.3-5.6,2-8.8ZM37.4,18.8c0,1.6-1.3,2.9-2.9,2.9h0c-1.6,0-2.9-1.3-2.9-2.9,0-.8.3-1.5.8-2.1s1.3-.9,2.1-.9h0c.8,0,1.5.3,2.1.9s.9,1.3.9,2.1ZM28.4,28.3c.1-2.3,2-4.2,4.3-4.2h3.4s0,0,0,0c2,0,3.9,1.7,4.2,3.6.1,1.2.1,2.5.1,3.7,0,.5,0,.9,0,1.4h-12.1c0-.4,0-.8,0-1.2,0-1.1,0-2.2,0-3.3Z"/>
</svg>