<svg xmlns="http://www.w3.org/2000/svg" id="Layer_1" data-name="Layer 1" version="1.1" viewBox="0 0 50 50" width="50" height="50">
  <defs>
    <style>
      .cls-1 {
        fill: #6e4f9e;
        stroke-width: 0px;
      }
    </style>
  </defs>
  <path class="cls-1" d="M45.3,6C39-1,28.5-2,21,3.6c-3.7,2.8-6.1,6.5-6.9,11-1.1,5.5.2,10.6,3.8,15l-4,4.1c-.1,0-.3-.2-.4-.2-1.9-1-4.1-.7-5.5.7-2.3,2.2-4.5,4.4-6.7,6.7-1.1,1.1-1.5,2.6-1.2,4.3.3,1.4,1.2,2.4,2,3.2,1.1,1.1,2.4,1.6,3.6,1.6s2.5-.5,3.6-1.6c2-2,4-4,6.1-6.1,1.7-1.7,2-3.8.9-6-.1-.2,0-.3.1-.5.8-.8,1.6-1.5,2.3-2.3l1.4-1.4s0,0,.1,0c7.5,6.2,18.5,5.4,25-1.7,6.3-6.9,6.3-17.3,0-24.3ZM13.7,38.7c0,.6-.4,1.2-1.1,1.9-1.3,1.2-2.5,2.4-3.7,3.6-.6.6-1.1,1.1-1.7,1.7-1.1,1.1-1.9,1-3,0-.5-.5-1-1-1.1-1.7,0-.1.1-.2.2-.4.1-.3.3-.6.5-.8,1.8-1.9,3.7-3.8,6.3-6.3.7-.7,1.6-.7,2.4,0h0c.9.8,1.3,1.4,1.3,2ZM46.7,18.1c0,4-1.5,7.7-4.4,10.5-2.8,2.8-6.6,4.4-10.5,4.4h0c-8.2,0-14.9-6.7-14.9-14.9,0-4,1.5-7.7,4.4-10.6,2.8-2.8,6.6-4.4,10.5-4.4h0c8.2,0,14.9,6.7,14.9,14.9Z"/>
  <path class="cls-1" d="M36.3,23.3c1,.1,1.2.8,1.1,1.6,0,.8,0,1.6,0,2.4,0,2.1-1.5,3.8-3.6,4-1.4.1-2.9.1-4.3,0-1.9-.2-3.3-1.8-3.4-3.8,0-.9,0-1.7,0-2.6,0-.8,0-1.4,1.2-1.5-.5-.8-.9-1.6-1.4-2.3-1-1.4-1.9-2.9-2.2-4.6-.7-4.3,2-8.4,6.3-9.3,4.3-.9,8.6,1.7,9.7,5.9.6,2.3.3,4.4-1,6.4-.7,1.2-1.5,2.4-2.2,3.6,0,.1,0,.2-.2.4ZM30.7,16.3c-.8,0-1.6,0-2.3,0-.7,0-1.2-.2-1.3-1,0-.6.4-1,1.2-1,2.2,0,4.4,0,6.7,0,.8,0,1.2.4,1.2,1,0,.6-.4,1-1.2,1-.8,0-1.5,0-2.3,0v7c.8.2,1.4.2,1.7-.8.3-.9.9-1.7,1.4-2.5.4-.7,1-1.4,1.4-2.2,1.3-2.5.8-5.6-1.4-7.5-2.1-1.9-5.3-2.1-7.6-.5-2.8,1.9-3.5,5.4-1.8,8.4.8,1.4,1.7,2.7,2.5,4.2.6,1,.5,1.1,1.7.8v-7ZM28.1,25.4c0,.7,0,1.3,0,1.9,0,1.2.8,2,2,2.1,1.1,0,2.3,0,3.4,0,1,0,1.8-.7,1.9-1.7,0-.7,0-1.5,0-2.3h-7.3Z"/>
</svg>