<?xml version="1.0" encoding="UTF-8"?>
<svg id="Layer_1" data-name="Layer 1" xmlns="http://www.w3.org/2000/svg" version="1.1" viewBox="0 0 1017.7 1080">
  <defs>
    <style>
      .cls-1 {
        fill: #6e4f9e;
        stroke-width: 0px;
      }
    </style>
  </defs>
  <path class="cls-1" d="M386.7,829.4c-4.8-7.2-8.7-13.3-12.7-19.3-62.3-94.8-122.5-190.8-168.4-294.8-9.1-20.7-19.3-27.7-40.8-25.6-20.3,1.9-40.9.7-61.4.3-9.7-.2-14.5,3.6-13.7,13.6.2,2.2.3,4.4,0,6.6-1.5,10.4,1.7,16.5,12.2,21.7,23.6,11.7,34,39,27,64.5-6.8,24.9-30.2,42-56.7,41.5-25.8-.5-48.5-19.2-54.3-44.7-5.6-24.9,6.3-51.6,29.7-62.5,8.8-4.1,11.2-8.8,10.4-17.4-.5-4.7-.2-9.5,0-14.3,1.2-24.5,17.8-40.7,42.4-41,22.7-.3,45.4,0,68,0,3.6,0,7.2,0,10.3,0-8.5-34.3-16.8-67.8-25.4-102.7-11.1,0-23.9-.5-36.6.4-2.9.2-6.2,5-8,8.3-11.5,21.1-28.7,33-53.1,32.3-23.4-.6-40.3-12.3-50.2-33.2-13.2-27.8-1.3-60.9,26.3-74.7,27.7-13.9,60.8-3.4,75.5,23.8,1.9,3.5,3.5,7.2,5.3,11h41.2c7.4-34.5,14.6-68.2,21.9-102.6-23.2,0-47.6,0-72.1,0-29.3,0-45.2-16.1-45.5-45.6,0-2.6-.3-5.2,0-7.7,1.5-9.9-1.8-15.2-11.5-19.9-23.3-11.3-34.5-38.4-28.1-63.1,6.6-25.9,30-44,56.3-43.6,25.5.4,48.5,18.5,54.5,43.1,6.3,25.7-5.1,51.8-28.3,64.2-3.5,1.9-7.2,3.5-11.2,5.4,0,7.8.2,15.4,0,23.1-.3,9,4.2,12.5,12.7,12.4,27.8,0,55.6.3,83.4-.4,3.9-.1,9.1-5,11.4-9C245.2,94.8,315.3,37.9,409.2,12.1c152.1-41.8,312.6,26.9,389.1,165.9,4.5,8.2,9.1,11.3,18.5,11.1,32.2-.6,64.4-.2,96.6-.3,12.5,0,14.7-2.3,14.8-14.7,0-5.9,0-11.7,0-17.6,0-1.1-.3-2.2-.4-3.6-20.2-7.8-34.6-21.1-39.4-43.2-6.2-28.7,10.8-57.8,38.8-66.4,27.8-8.6,57.6,5.1,69.2,31.7,11.9,27.1,1.5,59.2-25,72.4-9.7,4.8-12.7,10.2-11.5,20,.6,4.7.2,9.5-.1,14.2-1.7,22.8-18.1,38.6-40.9,38.9-28.9.3-57.8,0-86.7.1-4,0-8,0-10.8,0,7.3,34.1,14.5,67.8,22.1,102.9,18.1,0,38.2.3,58.2-.3,2.5,0,5.8-4.5,7.3-7.6,11.2-22.7,34.3-36.1,58-33.2,25.1,3,44.6,21,49.8,45.8,5.7,27.4-9.9,55.3-36.4,64.9-27,9.8-57.2-1.7-69.7-27.8-4.1-8.5-8.8-10.6-17.4-10.3-17.1.6-34.3.2-49.6.2-8.6,34.9-16.9,68.4-25.4,102.7,20.9,0,42.7,0,64.6,0,11.7,0,23.4-.2,35.1,0,24.1.5,40.6,16.4,42.1,40.2,0,.4,0,.7,0,1.1-2.4,16.7,2,27.8,18.6,37.2,21.9,12.5,28,41.6,18.7,65.2-9.5,24.1-33.3,38.4-59.4,35.9-24.6-2.4-44.9-21.5-49.9-47-4.7-24.2,7.6-48.7,30-60.5,3.8-2,9.5-5.2,9.7-8.2.7-9.3-.3-18.8-1.8-28-.3-1.8-6.1-3.7-9.3-3.7-35.5-.3-71-.3-106.4,0-3.3,0-8.1,3.3-9.5,6.3-50.3,113.8-115.5,219.1-183.8,322.6-2,3-3.7,6.1-6,10,21,3.6,41,6.6,60.9,10.7,31.9,6.6,63.4,15,91.6,31.9,8.7,5.2,17,11.6,23.9,19,16.6,17.7,17.5,41.7-.3,57.9-14,12.7-30.9,23.6-48.3,31.1-44,19-91.1,26.1-138.5,31.2-59.8,6.4-119.7,6.9-179.7,2.2-52.9-4.2-105.5-11.4-155.4-30.5-16.2-6.2-32.1-14.5-46-24.8-29.5-21.9-29-53.6,0-76.3,23.2-18.2,50.6-27.4,78.6-35,14.4-3.9,29.2-6.8,43.8-9.6,14.3-2.7,28.8-4.8,45.2-7.5ZM185.8,336.8c2.1,15.9,3,32,6.3,47.7,12.2,57.3,36.4,110.2,62.7,162,58.2,114.6,127.9,222.3,201.2,327.7,23.5,33.8,61.8,34.3,84.6.1,39.3-59,79.1-117.7,116.6-177.9,48.8-78.1,94-158.4,127.1-244.7,17.1-44.6,28.8-90,23.9-139C789.3,123.7,605.4-5.7,421.5,41.6c-135.3,34.8-229.2,153-235.6,295.2ZM497.1,984.7c68.2-1,135.8-4.5,201.1-24.3,20.7-6.3,40.7-16,59.5-26.7,13.9-7.9,13.5-18.1.4-27.6-9.3-6.8-19.8-12.6-30.5-17-42.3-17.2-87.1-24.1-132.2-29-3-.3-7.4,2.4-9.5,5-7.3,9.6-13.8,19.8-20.8,29.6-34.7,48.9-99.1,48.7-133.9-.3-7-9.8-13.5-20-20.8-29.6-2-2.6-6.6-5-9.5-4.6-31.3,5.1-62.7,10-93.7,16.6-24.3,5.2-47.9,13.4-68.2,28.6-13.3,9.9-13.8,20.1.4,28.6,15.8,9.5,32.7,18.1,50.2,23.7,67.5,21.7,137.6,25.7,207.4,26.9ZM73.4,72.9c-13.9.2-25.1,11.4-25,25.2,0,13.4,11.8,25.2,25.2,25.3,14.1.1,25.5-11.6,25.3-26-.3-14-11.3-24.6-25.4-24.5ZM919,97.6c-.2,14,10.5,25.3,24.4,25.8,13.8.5,26.1-11.6,26.1-25.5,0-13.8-11.3-24.9-25.2-25-14.2,0-25.1,10.6-25.3,24.7ZM985.7,339.7c.1-14.1-10.5-25.1-24.6-25.3-14.4-.3-26.1,11.2-25.9,25.4.2,13.6,11.9,25.1,25.4,25.1,13.8,0,24.9-11.2,25.1-25.1ZM32.2,339.7c.1,13.9,11.3,25.1,25.1,25.1,13.5,0,25.2-11.6,25.4-25.1.2-14.1-11.5-25.6-25.9-25.3-14.1.3-24.7,11.2-24.5,25.4ZM74.3,555.7c-13.9-.2-25.4,10.6-25.9,24.3-.5,13.9,11.4,26.1,25.4,26.1,13.8,0,24.9-11.2,25-25.1.1-14.1-10.6-25.1-24.6-25.3ZM919,580.6c-.1,14,10.7,25.2,24.6,25.6,14,.3,26.1-11.6,25.9-25.6-.2-13.8-11.5-24.8-25.4-24.8-14.1,0-25,10.8-25.1,24.9Z"/>
  <path class="cls-1" d="M402.2,660.1c-1.6-.6-3.3-1.2-5-1.9-13.3-5.8-21.1-15.6-21.7-30.4-.6-14.7,6.3-25.5,19.4-31.7,4.7-2.2,5.9-4.4,5.2-9.4-4.4-35.1-18.4-65.3-43.8-90.1-47.1-46-70.5-102.1-68.8-168,3.4-128.1,117.4-227.4,244.5-213.6,103.3,11.3,185.4,92,196.7,195.1,7.8,70.7-13.4,132.4-63.7,182.8-26.7,26.7-43.3,57.6-47,95.2-.2,2.2,1.7,6,3.6,7,13.9,7,21.6,17.7,20.6,33.5-.9,15.4-9.4,25.3-23.8,30.3-1,.3-1.9.9-3.2,1.5,3.3,12.5,2.1,24.7-7.5,33.7-5.3,4.9-12.8,7.9-19.8,10.4-4,1.4-6.6,2.1-7.8,6.9-8.6,33.7-37.8,56.5-71.5,56.4-33.4-.1-62.1-23-71.1-56.2-.7-2.5-3.1-5.8-5.2-6.3-24.8-5.8-33.8-18.9-30.1-45.2ZM497.1,592c.2-2.6.4-4.6.4-6.7,0-85.7,0-171.5.2-257.2,0-5.8-2.7-7.5-7-9.6-17.3-8.3-26.3-27.4-22.1-45.6,4.5-19.5,20.8-32.6,40.5-32.6,19.7,0,36,13.2,40.4,32.7,4.2,18.2-4.9,37.4-22.4,45.4-5.5,2.5-7,5.5-6.9,11.3.2,84.7.1,169.4.1,254v8.1h29.4c.2-2.3.3-3.9.4-5.4,3.1-53.1,6-106.2,9.4-159.3.3-4.5,2.1-9.3,4.5-13.1,9.2-14.2,18.8-28.2,28.5-42,3.2-4.6,4-7.8.8-13.2-10.1-16.5-6.5-37.7,7.7-50.6,14.3-13.1,36.2-14.4,51.9-3.2,15.9,11.3,21.7,32.3,14,50.2-7.7,17.7-26.3,27.9-45.2,24.1-4.3-.8-6.7-.1-9.1,3.6-9,13.7-18.6,27-27.6,40.7-1.9,2.9-3,6.7-3.2,10.2-2.1,33-4,66-5.9,99-1.1,19.5-2.1,39-3.1,58.9h21.1c1.1-7.2,1.8-13.8,3-20.3,6.9-37.4,25.1-68.3,51.9-95.1,47.4-47.3,65.7-105.3,56.2-171.1-16.1-111.4-123.9-186.8-234.1-164.9-92.2,18.2-158.6,97.5-160.3,191.5-1,56.6,18.8,105,58.7,144.9,15.9,15.8,29.5,33.1,38.9,53.6,8.9,19.4,13.9,39.8,15.8,61.5h20.7c.1-1.7.4-3,.3-4.2-2.6-46-5.6-91.9-7.5-137.9-.6-15.7-4.5-29.2-14.6-41.3-5.6-6.6-10.4-14-14.8-21.5-3.8-6.5-7.8-10-15.7-7-2.7,1-6.3.3-9.4-.2-19.1-3.1-32.8-17.5-35.3-36.7-2.2-17,7.9-34.6,23.9-42,16.2-7.5,36-3.5,47.9,9.7,12.4,13.7,14.4,32.7,4.4,49.2-2.5,4.2-2.1,6.8.5,10.5,9.9,14.1,19.6,28.2,28.9,42.7,2.7,4.2,4.8,9.5,5.1,14.5,2.4,35.6,4.2,71.3,6.3,107,1.1,19,2.3,37.9,3.5,57.3h28.8ZM508.9,615.5c-31.4,0-62.8,0-94.1,0-2.4,0-4.8-.2-7.1.2-5.6,1-9,4.6-9.3,10.2-.3,5.7,2.9,9.6,8.3,11.1,2.5.7,5.2.5,7.9.5,63,0,126.1,0,189.1,0,2.4,0,4.8.2,7.1-.4,5.8-1.4,9.3-5.3,8.9-11.4-.3-5.6-3.9-9.1-9.5-10.1-2.3-.4-4.7-.2-7.1-.2-31.4,0-62.8,0-94.1,0ZM460.3,705.8c4.6,25,30.1,42,56.7,38.2,20.4-2.9,41.3-23.2,39.5-38.2h-96.3Z"/>
</svg>