<?xml version="1.0" encoding="UTF-8"?>
<svg id="Layer_1" data-name="Layer 1" xmlns="http://www.w3.org/2000/svg" version="1.1" viewBox="0 0 1079.15 1080">
  <defs>
    <style>
      .cls-1 {
        fill: #6e4f9e;
        stroke-width: 0px;
      }
    </style>
  </defs>
  <g>
    <path class="cls-1" d="M428.73,427.15v266.8c0,24.95-14.26,37.14-38.95,31.98-9.76-2.05-20.02-5.37-28.19-10.86-58.87-39.6-124.58-61.34-193.33-75.06-27.95-5.57-56.58-7.98-84.33-14.31C34.48,614.41.39,571.27.26,520.53-.1,380.27-.07,240.04.26,99.78.37,52.14,30.35,13.15,73.09,2.39c18.4-4.64,36.52-1.53,54.66,1.05,63.96,9.08,126.67,23.44,185.85,49.83,25.42,11.33,49.55,25.75,73.66,39.79,9.87,5.74,17.74,6.34,27.28-.09,60.86-41.11,129.06-64.01,200.24-78.9,25.91-5.41,52.19-9.19,78.41-12.81,51.63-7.13,97.32,26.73,106.62,78.54,1.07,6,1.86,12.14,1.87,18.21.13,112.84.13,225.67.08,338.52,0,14.4-7.81,25.14-20.04,28.35-12.43,3.26-25.92-1.7-31.26-13.14-2.82-6.06-3.84-13.44-3.84-20.24-.22-108.18-.11-216.35-.27-324.51,0-7.79-.44-15.9-2.64-23.28-5.57-18.67-22.29-30.17-41.35-27.89-78.85,9.43-155.49,27.04-226.28,64.64-15.16,8.04-29.62,17.41-44.05,26.71-2.12,1.37-3.12,5.82-3.13,8.86-.22,30.91-.14,61.81-.14,92.72v178.44l-.02-.03ZM373.17,655.29V157.15c0-1.75.35-3.6-.13-5.23-.52-1.76-1.4-3.93-2.82-4.82-13.32-8.36-26.47-17.06-40.28-24.55-72.09-39.14-150.36-57.29-231.01-66.83-17.52-2.06-33.04,7.74-39.3,24.46-2.88,7.68-4,16.45-4.03,24.71-.3,69.11-.17,138.22-.17,207.33s-.08,136.48.05,204.71c.05,28.9,17.64,50.84,45.14,56.21,9.99,1.95,20.23,2.64,30.31,4.11,62.19,9.05,123,23.42,180.86,48.51,20.48,8.88,40.28,19.31,61.37,29.53h0Z"/>
    <path class="cls-1" d="M112.15,224.22c-.19-16.81,14.35-30.41,30.8-27.87,53.04,8.15,105.01,20.62,155.19,39.95,14.5,5.59,21.48,19.75,17.27,33.79-4.96,16.46-20.63,22.93-38.62,17.55-35.07-10.5-70.31-20.38-105.64-29.95-11.19-3.02-22.87-4.28-34.34-6.23-14.75-2.5-24.51-13.19-24.65-27.21v-.02Z"/>
    <path class="cls-1" d="M141.27,344.28c27.58,6,55.31,11.32,82.65,18.24,13.76,3.48,20.89,19.49,17.03,33.16-3.82,13.58-17.94,22.44-31.89,19.67-25.12-4.97-50.24-10.03-75.3-15.3-14.5-3.05-23.42-16.51-21.37-31.45,1.86-13.52,14.21-23.44,28.88-24.33h0Z"/>
  </g>
  <g>
    <path class="cls-1" d="M506.09,964.33c-73.42-92.08-93.18-194.52-47.86-303.41,49.7-119.45,145.13-182.37,272.54-194.6,89.86-8.63,171.37,17.06,240.34,75.91,77.71,66.28,115.32,151.05,107.96,253.83-5.19,72.51-35.02,134.56-85.87,185.96-65.57,66.28-146.17,97.47-238.96,97.84-72.46.28-144.93.06-217.39.03-3.12,0-6.25-.11-9.33-.39-22.4-2.09-38.4-13.33-46.19-34.45-7.78-21.09-3.02-40.14,12.58-56.28,5.65-5.85,11.77-11.25,18.21-17.34-2.63-3.08-4.38-5.04-6.01-7.08h0ZM780.11,1032.43c121.1-7.81,226-93.54,248.86-210.5,18.04-92.31-9.51-171.51-77.45-235.52-60.88-57.35-135.04-82.07-217.86-74.13-107.92,10.34-188.32,63.82-232.6,164.33-40.29,91.49-17.85,200.36,52.59,271.52,1.18,1.2,2.38,2.38,3.56,3.56,13.3,13.36,13.38,25.39.22,38.59-9.48,9.52-19.2,18.81-28.35,28.63-2.44,2.61-3.15,6.82-4.66,10.29,3.68,1.53,7.35,4.38,11.05,4.39,41.02.31,82.05.2,123.07.2v-.99c40.53,0,81.22,2.19,121.59-.41v.03Z"/>
    <path class="cls-1" d="M780.9,864.45c0-38.84-.06-76.51.14-114.16,0-2.19,1.59-4.83,3.24-6.47,7.68-7.68,10.33-17.08,6.39-26.19-4.12-9.54-11.66-14.28-22.05-14.43-3.12-.05-6.23-.05-9.36,0-14.7.19-24.36,9.66-24.4,24.36-.09,42.7-.03,85.4-.03,128.1v8.78c-4.14,0-7.89-.11-11.63.02-12.94.42-22.89,10.45-22.9,22.96-.02,12.53,9.87,22.85,22.82,23,23.28.25,46.54.27,69.82-.02,12.86-.16,22.68-10.75,22.51-23.29-.17-12.29-9.87-22.1-22.48-22.63-3.78-.16-7.57-.03-12.06-.03h-.02Z"/>
    <path class="cls-1" d="M723.34,634.26c.09,18.82,15.53,34.26,34.37,34.34,19.14.08,34.78-15.6,34.69-34.74-.09-19.11-15.93-34.6-35.1-34.33-18.81.25-34.06,15.85-33.97,34.74v-.02Z"/>
  </g>
</svg>