<?xml version="1.0" encoding="UTF-8"?>
<svg id="Layer_1" data-name="Layer 1" xmlns="http://www.w3.org/2000/svg" version="1.1" viewBox="0 0 1080.01 1080">
  <defs>
    <style>
      .cls-1 {
        fill: #6e4f9e;
        stroke-width: 0px;
      }
    </style>
  </defs>
  <path class="cls-1" d="M766.13,942.16c-20.92,42.95-70.95,69.36-127.27,42.35-11.69,23.07-28.96,40.3-54.01,48.69-25.02,8.39-49.17,5.56-72.96-6.77-2.03,3.47-3.74,6.42-5.48,9.34-28.14,47.37-90.86,58.59-134.07,24.37-90.31-71.52-180.73-142.88-271.35-214-4.44-3.49-11.11-5.46-16.86-5.72-16.37-.76-32.81-.11-49.21-.31-23.48-.3-34.81-11.26-34.84-34.4C-.03,668.23-.04,530.75.09,393.26c.02-25.18,16.55-37.44,41.26-31.21,29.5,7.43,59.05,14.67,88.38,22.71,8.34,2.28,14.68.94,21.9-3.35,50.01-29.7,102.68-52.68,160.64-61.73,28.87-4.52,57.51-3.86,85.96,3.61,3.89,1.02,9.47.44,12.73-1.72,70.8-46.9,147.52-53.1,226.72-29.51,43.94,13.09,85.79,33.04,129.15,48.31,46.65,16.44,93.79,31.61,141.14,45.95,10.13,3.06,22.48,2.02,33.08-.35,32.33-7.25,64.29-16.12,96.43-24.25,25.76-6.51,42.45,6.17,42.47,32.7.1,136.71.1,273.41,0,410.12-.01,24.6-11.14,35.37-36.03,35.6-9.77.1-19.61.81-29.28-.12-37.07-3.57-72.05,4.68-106.12,18.05-3.44,1.35-7.58,5.53-8.11,8.93-11.35,71.98-64.94,102.32-134.27,75.16h.01ZM347.1,377.04c-5.35.23-9.59.22-13.78.65-56.03,5.68-105.87,28.31-153.5,56.69-3.15,1.88-5.39,7.32-5.85,11.36-6.15,53.12-11.97,106.29-17.76,159.46-6.47,59.38-12.67,118.78-19.43,178.13-1.08,9.49,1.06,15.52,8.99,21.64,45.77,35.29,91.02,71.26,136.42,107.03,42.03,33.12,84.01,66.29,126.03,99.4,19.85,15.64,46.23,7.15,50.23-16.04,2.15-12.45-3.02-21.85-11.54-30.31-26.07-25.86-52.05-51.82-77.93-77.86-14.78-14.86-15.95-32.91-3.28-45.51,12.65-12.59,30.87-11.42,45.62,3.23,21.89,21.76,43.6,43.69,65.4,65.53,19.31,19.36,38.64,38.71,57.96,58.06,8.87,8.87,19.64,11.34,31.29,7.68,11.36-3.58,18.06-12.12,20.03-23.82,2.01-11.93-3.58-20.99-11.75-29.09-32.73-32.46-65.35-65.04-97.97-97.6-9.39-9.38-19-18.58-27.98-28.34-8.15-8.87-9.36-19.63-5.14-30.63,4.3-11.21,13.17-17.34,24.93-18.62,11.43-1.25,20.01,4.49,27.81,12.32,53,53.08,106.12,106.03,159.23,159,3.31,3.3,6.57,6.78,10.33,9.49,17.54,12.63,40.91,4.08,46.49-16.8,3.45-12.9-1.94-22.69-10.74-31.47-38.13-38.1-76.22-76.27-114.3-114.43-17.11-17.15-34.41-34.11-51.18-51.58-9.57-9.96-10.79-24.55-4.18-35.73,6.76-11.43,20.42-17.76,33.26-13.31,7,2.42,13.63,7.54,18.99,12.88,66.19,65.84,132.13,131.96,198.15,197.98,3.59,3.59,7.12,7.32,11.19,10.3,10.33,7.57,23.47,7.68,34.09.79,10.23-6.63,16.31-19.89,12.17-31.64-2.59-7.38-7.77-14.43-13.38-20.06-90.16-90.5-180.56-180.76-270.92-271.04-2.71-2.71-5.59-5.24-7.55-7.07-17.82,11.55-34.12,23.83-51.9,33.33-50.82,27.15-102.21,28.36-153.05-.48-57.27-32.48-73.57-95.86-38.5-151.48,13.06-20.71,27.9-40.3,43.01-61.96v-.05ZM929.52,788.55c-8.86-114.6-17.62-227.79-26.36-340.84-2-.88-3.37-1.62-4.85-2.09-50.78-16.39-101.85-31.89-152.24-49.4-40.46-14.06-79.46-32.51-120.22-45.51-57.4-18.3-114.85-18.1-168.65,13.34-47.19,27.58-80.56,68.59-106.33,115.91-10.56,19.38-2.77,42.8,16.59,55.14,39.18,24.98,77.3,18.57,114.21-5.14,38.84-24.93,67.34-60.07,94.08-96.88,11.71-16.13,29.29-19.89,43.65-9.68,14.33,10.2,16.53,28.25,4.8,44.42-11.19,15.44-22.95,30.47-35.92,47.63,3.25,2.44,7.04,4.68,10.06,7.68,38.2,38.02,76.28,76.14,114.38,114.24,53.56,53.57,107.07,107.2,160.84,160.56,2.74,2.72,8.26,5.17,11.6,4.31,14.65-3.77,28.97-8.81,44.36-13.68h-.01ZM961.91,442.93c8.72,112.65,17.38,224.47,26.05,336.44h31.72v-350.82c-19.58,4.88-38.35,9.54-57.77,14.38h0ZM77.24,779.49c12.17-113.2,24.2-225.04,36.28-337.35-18.51-4.73-35.69-9.12-53.03-13.54v350.89h16.75Z"/>
  <path class="cls-1" d="M453.7,213.1c2.33-13.62,4.89-30.54,8.25-47.31,1.46-7.28.04-12.28-5.6-17.35-11.31-10.17-21.86-21.18-32.76-31.81-7.59-7.41-11.49-15.84-7.74-26.54,3.7-10.55,11.78-15.04,22.3-16.52,16-2.23,32.04-4.37,47.91-7.32,3.59-.66,7.89-3.8,9.62-7,7.53-13.92,14.37-28.22,21.17-42.51C521.59,6.78,528.68-.05,540.09,0c11.39.05,18.43,6.91,23.16,16.88,6.64,14.02,13.93,27.75,20.44,41.82,2.41,5.21,5.62,7.46,11.3,8.16,15.73,1.91,31.36,4.55,47.04,6.76,10.53,1.48,18.6,6.11,22.22,16.64,3.66,10.67-.28,19.12-7.89,26.52-11.6,11.26-23.38,22.38-34.54,34.08-2.52,2.65-4.28,7.67-3.81,11.25,2.08,16.01,5.01,31.91,7.79,47.83,1.9,10.84.09,20.36-9.47,26.96-9.53,6.58-19.04,4.71-28.62-.53-13.61-7.44-27.28-14.85-41.32-21.45-3.57-1.68-9.29-1.65-12.84.04-15.43,7.36-30.19,16.11-45.64,23.42-17.21,8.14-34.58-3.34-34.2-25.26h-.01ZM483.52,208.57c14.68-7.7,27.22-13.65,39.14-20.69,11.91-7.04,22.91-6.95,34.8.04,12.14,7.13,24.9,13.23,39.03,20.65-2.65-15.96-4.23-30.08-7.48-43.81-3.27-13.75,1-23.72,10.91-33.03,10.27-9.65,19.51-20.39,29.51-31-13.88-2.04-27.81-4.57-41.85-5.99-13.28-1.35-22.21-7.32-27.66-19.71-5.79-13.15-12.65-25.83-19.91-40.44-7.46,15.03-14.42,28.07-20.47,41.51-5.26,11.71-14,17.15-26.41,18.55-14.3,1.62-28.49,4.05-42.1,6.02,10.77,11.51,21.09,22.97,31.91,33.95,7.78,7.89,10.72,16.58,8.5,27.59-2.93,14.5-5.03,29.18-7.92,46.39v-.02Z"/>
  <path class="cls-1" d="M176.69,285.58c1.91-11.2,4.01-25.1,6.78-38.87,1.2-5.98.03-10.09-4.61-14.26-9.3-8.36-17.97-17.4-26.92-26.15-6.23-6.09-9.45-13.02-6.35-21.81,3.04-8.67,9.68-12.36,18.32-13.57,13.15-1.84,26.33-3.59,39.37-6.01,2.95-.54,6.48-3.12,7.9-5.75,6.18-11.43,11.81-23.19,17.4-34.94,3.9-8.19,9.73-13.8,19.1-13.76,9.36.04,15.15,5.67,19.04,13.87,5.46,11.52,11.44,22.79,16.8,34.37,1.99,4.28,4.61,6.13,9.29,6.7,12.92,1.57,25.76,3.74,38.66,5.55,8.65,1.22,15.28,5.02,18.26,13.68,3.01,8.76-.22,15.72-6.49,21.79-9.54,9.26-19.22,18.38-28.38,28-2.07,2.18-3.51,6.3-3.13,9.25,1.71,13.15,4.11,26.22,6.41,39.3,1.56,8.9.07,16.73-7.78,22.15-7.84,5.4-15.64,3.86-23.53-.44-11.19-6.12-22.42-12.2-33.95-17.63-2.93-1.38-7.63-1.36-10.56.04-12.68,6.04-24.81,13.24-37.5,19.25-14.14,6.68-28.42-2.75-28.1-20.75h-.01ZM201.2,281.86c12.06-6.32,22.38-11.22,32.17-17.01,9.79-5.78,18.83-5.71,28.6.03,9.98,5.86,20.46,10.87,32.07,16.96-2.18-13.11-3.47-24.73-6.15-36.01-2.69-11.31.82-19.49,8.97-27.15,8.43-7.93,16.02-16.76,24.26-25.48-11.4-1.68-22.86-3.75-34.39-4.92-10.91-1.11-18.25-6.02-22.73-16.2-4.76-10.8-10.4-21.22-16.37-33.23-6.14,12.35-11.85,23.07-16.81,34.11-4.32,9.62-11.51,14.08-21.7,15.25-11.74,1.33-23.41,3.32-34.6,4.95,8.85,9.46,17.33,18.88,26.22,27.9,6.39,6.48,8.81,13.62,6.98,22.68-2.4,11.91-4.13,23.98-6.51,38.12h0Z"/>
  <path class="cls-1" d="M716.7,285.58c1.91-11.2,4.01-25.1,6.78-38.87,1.2-5.98.03-10.09-4.61-14.26-9.3-8.36-17.97-17.4-26.92-26.15-6.23-6.09-9.45-13.02-6.35-21.81,3.04-8.67,9.68-12.36,18.32-13.57,13.15-1.84,26.33-3.59,39.37-6.01,2.95-.54,6.48-3.12,7.9-5.75,6.18-11.43,11.81-23.19,17.4-34.94,3.9-8.19,9.73-13.8,19.1-13.76,9.36.04,15.15,5.67,19.04,13.87,5.46,11.52,11.44,22.79,16.8,34.37,1.99,4.28,4.61,6.13,9.29,6.7,12.92,1.57,25.76,3.74,38.66,5.55,8.65,1.22,15.28,5.02,18.26,13.68,3.01,8.76-.22,15.72-6.49,21.79-9.54,9.26-19.22,18.38-28.38,28-2.07,2.18-3.51,6.3-3.13,9.25,1.71,13.15,4.11,26.22,6.41,39.3,1.56,8.9.07,16.73-7.78,22.15-7.84,5.4-15.64,3.86-23.53-.44-11.19-6.12-22.42-12.2-33.95-17.63-2.93-1.38-7.63-1.36-10.56.04-12.68,6.04-24.81,13.24-37.5,19.25-14.14,6.68-28.42-2.75-28.1-20.75h-.01ZM741.2,281.86c12.06-6.32,22.38-11.22,32.17-17.01,9.79-5.78,18.83-5.71,28.6.03,9.98,5.86,20.46,10.87,32.07,16.96-2.18-13.11-3.47-24.73-6.15-36.01-2.69-11.31.82-19.49,8.97-27.15,8.43-7.93,16.02-16.76,24.26-25.48-11.4-1.68-22.86-3.75-34.39-4.92-10.91-1.11-18.25-6.02-22.73-16.2-4.76-10.8-10.4-21.22-16.37-33.23-6.14,12.35-11.85,23.07-16.81,34.11-4.32,9.62-11.51,14.08-21.7,15.25-11.74,1.33-23.41,3.32-34.6,4.95,8.85,9.46,17.33,18.88,26.22,27.9,6.39,6.48,8.81,13.62,6.98,22.68-2.4,11.91-4.13,23.98-6.51,38.12h0Z"/>
</svg>