<?xml version="1.0" encoding="UTF-8"?>
<svg id="Layer_1" data-name="Layer 1" xmlns="http://www.w3.org/2000/svg" version="1.1" viewBox="0 0 1035.23 1080">
  <defs>
    <style>
      .cls-1 {
        fill: #6e4f9e;
        stroke-width: 0px;
      }
    </style>
  </defs>
  <path class="cls-1" d="M428.17.03c13.5,3.41,27.3,5.96,40.47,10.35,78,26.05,130.19,96.1,133,178.29.63,18.2.09,36.44.09,56.12,19.95,0,38.77-.24,57.59.05,34.63.52,61.22,16.01,80.38,44.49,10.21,15.17,15.62,32.22,17.25,50.32,8.71,96.56,17.16,193.14,25.83,289.7,10.22,113.7,20.29,227.43,30.97,341.08,5.91,62.9-35.7,109.57-98.9,109.57H98.05c-59.56,0-102.12-44.25-97.74-103.34,4.28-57.79,10.15-115.48,15.34-173.2,6-66.82,12.02-133.65,18.04-200.47,6.8-75.57,13.55-151.14,20.39-226.71,1.42-15.73,2.33-31.57,4.89-47.14,8.22-50.12,48.57-84.15,99.15-84.37,17.55-.07,35.1-.01,54.09-.01,0-15.31.14-29.97-.03-44.63-.31-26.63,3.02-52.75,13.74-77.23C255.6,55.08,306.48,13.84,380.18,1.91c1.99-.32,3.88-1.26,5.81-1.91h42.19v.03ZM541.56,305.07h-271.16v12.09c0,39.02.09,78.04-.06,117.06-.06,15.05-6.97,25.44-19.04,29.76-19.87,7.13-38.75-6.69-38.98-29.41-.41-39.02-.13-78.04-.14-117.06v-13.2c-18.07,0-34.53-.02-50.97,0-25.72.03-42.87,15.61-45.37,41.34-1.74,17.83-3.26,35.69-4.86,53.53-6.77,75.23-13.55,150.47-20.32,225.7-6.02,66.83-12.08,133.66-18.05,200.5-4.69,52.49-9.43,104.98-13.81,157.49-1.48,17.78,4.8,28.9,20.47,35.35,7.23,2.98,15.62,4.39,23.48,4.39,202.13.23,404.24.18,606.37.18,2.46,0,4.93.11,7.38-.05,23.37-1.51,38.25-17.76,36.59-40.83-1.78-24.88-4.23-49.71-6.44-74.56-5.85-65.8-11.72-131.58-17.61-197.38-6.76-75.58-13.56-151.17-20.36-226.76-4.19-46.54-7.99-93.12-12.85-139.59-1.88-17.91-11.05-34.31-29.4-37.05-21.44-3.21-43.72-.75-66.65-.75v11.56c0,37.61.08,75.23-.09,112.84-.02,5.56-.3,11.39-2,16.59-4.17,12.74-17.89,20.66-30.79,18.71-14.5-2.19-24.91-13.07-25.07-28.07-.41-39.71-.2-79.45-.25-119.16v-13.25.02ZM269.97,244.1h274.46c0-17.49.22-34.31-.03-51.12-1.05-68.14-53-125.94-119.91-133.6-68.28-7.81-133.07,35.62-147.97,102.47-5.86,26.3-4.53,54.21-6.54,82.24h-.01Z"/>
  <rect class="cls-1" x="679.76" y=".03" width="55.95" height="171.28" rx="27.97" ry="27.97"/>
  <rect class="cls-1" x="879.29" y="85.67" width="55.95" height="171.28" rx="27.97" ry="27.97" transform="translate(386.87 -591.36) rotate(45)"/>
  <rect class="cls-1" x="922.63" y="294.75" width="55.95" height="171.28" rx="27.97" ry="27.97" transform="translate(1541.39 -455.86) rotate(103.43)"/>
</svg>