<?xml version="1.0" encoding="UTF-8"?>
<svg id="Layer_1" data-name="Layer 1" xmlns="http://www.w3.org/2000/svg" version="1.1" viewBox="0 0 922.38 1079.47">
  <defs>
    <style>
      .cls-1 {
        fill: #6e4f9e;
        stroke-width: 0px;
      }
    </style>
  </defs>
  <path class="cls-1" d="M.02,516.82C.02,399.47-.04,282.13.05,164.77.1,82.05,54.74,16.7,136.16,2.09c8.87-1.59,18.07-1.92,27.12-1.93,183.51-.11,367.03-.32,550.54.03,82.55.15,146.92,54.85,161.33,136.07,1.71,9.61,1.96,19.59,1.97,29.4.11,174.88.1,349.77.07,524.66,0,21.76-9.11,34.59-26.56,37.87-18.72,3.52-36.03-9.17-38.03-28.11-.56-5.25-.46-10.58-.46-15.88-.02-171.48-.09-342.96.07-514.43.02-26.25-5.89-50.24-23.35-70.49-21.26-24.65-48.73-34.19-80.72-34.15-174.05.2-348.11.03-522.17.2-15.07.01-30.56-.36-45.16,2.73-45.09,9.52-75,47.92-75.15,95.23-.26,87.82-.09,175.64-.09,263.47,0,147.63-.1,295.26.07,442.89.05,50.59,31.99,89.18,80.51,97.77,7.38,1.31,15.06,1.22,22.61,1.23,120.71.07,241.41.03,362.11.09,5.28,0,10.68-.03,15.79,1.05,16.84,3.53,27.2,17.81,25.84,34.84-1.26,15.86-14.21,28.41-30.68,29.6-3.01.22-6.05.09-9.08.09-122.21,0-244.44.02-366.65,0C70.56,1034.28.07,963.6.03,867.75,0,750.78.03,633.81.03,516.84v-.02Z"/>
  <path class="cls-1" d="M920.21,976.14c.76,15.12,2.09,30.23,2.17,45.34.19,33.61-27.02,59.58-60.71,57.91-32.48-1.61-64.94-3.9-97.4-5.95-17.4-1.1-30.04-10.8-41.82-22.62-80.96-81.2-162.03-162.27-243.16-243.3-14.9-14.88-27.28-31.23-34.25-51.43-18.3-53.08.93-110.53,47.7-141.73,45.49-30.35,107.65-26.28,147.76,12.18,48.07,46.07,94.55,93.81,141.68,140.87,38.02,37.97,75.78,76.21,114.08,113.9,14.08,13.85,20.99,29.96,21.47,49.5.37,15.13,1.59,30.23,2.44,45.34h.04ZM856.87,1013.42c-1.59-25.84-2.75-50.33-4.87-74.73-.47-5.37-3.15-11.67-6.9-15.48-48.35-48.96-97.1-97.53-145.71-146.23-13.3-13.32-26.5-26.75-38.5-38.86-26.88,26.88-52.87,52.87-79.08,79.08-.27-.45,0,.32.52.83,61.99,62.05,123.97,124.13,186.13,186.01,2.66,2.65,7.04,4.68,10.77,4.94,25.23,1.75,50.5,2.95,77.64,4.44h0ZM611.16,689.38c-16.28-19.45-35.35-34.26-63.67-27.96-22.77,5.07-37.45,19.43-42.55,42-6.4,28.27,7.59,48.27,27.86,64.3,26.29-26.28,52.11-52.1,78.36-78.34Z"/>
  <path class="cls-1" d="M439.33,193.74c77.9,0,155.82-.05,233.72.1,6.33.01,12.97.37,18.94,2.25,13.52,4.25,21.7,17.06,21.3,31.43-.38,13.7-9.13,25.92-22.3,29.66-5.7,1.61-11.92,1.98-17.91,1.98-156.19.1-312.39.1-468.58.01-5.61,0-11.42-.28-16.82-1.7-14.8-3.89-24.89-18.55-23.61-33.31,1.36-15.84,13.4-28.44,29.05-30.08,4.49-.47,9.07-.29,13.6-.29,77.53-.01,155.05,0,232.59,0v-.03Z"/>
  <path class="cls-1" d="M438.19,452.85c-79.42,0-158.85.07-238.27-.04-25.32-.03-41.44-20.34-34.1-42.72,4.32-13.13,13.93-20.33,27.37-22.38,4.08-.62,8.29-.44,12.45-.44,155.45-.02,310.88-.02,466.33.02,4.89,0,9.91-.07,14.67.86,16.92,3.26,27.61,17.28,26.6,34.26-.98,16.37-14.1,29.64-31.12,30.24-16.62.59-33.28.19-49.92.19h-194.02.01Z"/>
  <path class="cls-1" d="M279.18,840.26c-26.86,0-53.73.41-80.57-.12-24.71-.49-40.04-20.94-32.91-42.79,4.15-12.73,15.03-21.95,28.62-22.04,56.36-.34,112.74-.44,169.09,0,17.35.13,30.49,14.65,30.77,31.72.28,17.64-13.19,32.36-32.16,32.9-27.6.77-55.23.2-82.84.2v.13h-.01Z"/>
  <path class="cls-1" d="M272.28,646.33c-24.21,0-48.43.15-72.64-.04-21.18-.16-35.94-13.85-35.8-32.74.13-18.41,14.46-32.22,35.11-32.36,49.18-.34,98.36-.37,147.54.02,20.46.16,34.85,14.45,34.68,32.79-.16,18.52-14.66,32.08-35.13,32.28-24.59.23-49.18.05-73.77.05h0Z"/>
</svg>