<?xml version="1.0" encoding="UTF-8"?>
<svg id="Layer_1" data-name="Layer 1" xmlns="http://www.w3.org/2000/svg" version="1.1" viewBox="0 0 1311.49 1080">
  <defs>
    <style>
      .cls-1 {
        fill: #6e4f9e;
        stroke-width: 0px;
      }
    </style>
  </defs>
  <path class="cls-1" d="M0,542.79c3.73-34.77,3.45-70.56,12.02-104.1,19.27-75.39,88.68-129.19,166.42-133.73,10.31-.6,15.68-3.75,20.6-13.57C280.46,128.47,410.42,29.57,591.37,4.76c221.28-30.33,430.47,86.41,524.97,288.47,4.02,8.57,9.02,11.03,17.86,11.58,99.74,6.19,176.16,86.43,176.84,186.36.29,44.35,1.7,89.02-2.76,133-10.17,100.08-111.12,175.24-210.64,159.41-9.99-1.59-16.43-.67-23.02,8.8-79.25,113.92-187.48,184.04-323.36,211.39-8.37,1.68-12.55,4.94-16.09,12.64-22.02,47.93-73.52,72.99-124.4,61.23-49.74-11.51-85.82-57.76-84.79-108.73,1.05-52.48,38.82-96.55,91.05-106.24,44.58-8.27,90.36,13.14,113.82,54.18,4.33,7.57,8.5,9.31,16.6,7.63,172.23-35.86,306.48-178.76,332.25-353.91,33.2-225.69-111.33-433.69-335.5-482.81-229.97-50.39-465.37,107.2-506.73,338.68-17.73,99.23-3.43,193.14,43.31,282.27,16.24,30.99,6.98,54.4-26.19,66.11C132.45,817.94,3.52,726.8,3.44,597.25v-54.06c-1.14-.13-2.28-.26-3.43-.39h-.01ZM1122.99,705.93c4.46,0,7.42.21,10.33-.04,47.5-4.05,91.3-41.49,95.69-88.9,4.24-45.67,4.64-92.17,1.37-137.93-3.3-46.3-37.32-81.79-80.55-91.69,25.09,108.88,16.16,214.61-26.86,318.54h.01ZM164.68,387.41c-46.15,10.36-80.78,52.76-81.96,100.72-.94,37.72-.9,75.51.19,113.21.93,32.29,14.67,59.3,39.67,80.04,19.43,16.12,41.84,24.39,69,24.86-42.98-104.26-52.02-209.97-26.89-318.81h0ZM666,971.07c.22-16.82-12.54-30.11-29.29-30.51-17.32-.41-31.36,12.88-31.56,29.89-.18,16.1,13.48,30.37,29.62,30.91,16.86.56,31.01-13.15,31.24-30.28h0Z"/>
  <g>
    <path class="cls-1" d="M455.64,751.88c-19.83-6.83-38.38-10.52-54.18-19.19-42.24-23.19-63.03-60.59-63.26-108.6-.42-89.07-.6-178.15.02-267.2.5-72.23,52.91-124.19,125.14-124.4,128.41-.38,256.81-.35,385.22,0,71.5.19,124.44,53.26,124.79,125,.42,89.07.32,178.14.04,267.2-.22,72.7-52.43,124.74-125.4,125.32-38.93.31-77.85-.25-116.77.34-7.12.11-15.16,2.33-21.13,6.14-63.16,40.41-125.9,81.44-189,121.95-6.89,4.43-15,8.41-22.96,9.45-23.34,3.08-42.14-14.9-42.44-39.77-.34-28.49-.08-56.98-.09-85.46v-10.78h.01ZM531.91,775.82c5.32-3.15,9.05-5.18,12.62-7.48,44.47-28.71,89.13-57.14,133.23-86.41,12.71-8.43,25.72-11.88,40.68-11.75,42.94.38,85.89.26,128.83.06,21.94-.11,38.88-10.74,45.28-29.3,3.08-8.92,5.01-18.66,5.21-28.08.65-30.08.23-60.19.23-90.29,0-54.98.12-109.96-.06-164.93-.09-28.95-18.79-49.37-46.23-49.42-130.44-.25-260.88-.23-391.31-.01-26.69.05-46.08,19.97-46.14,46.83-.16,88.68-.16,177.37-.01,266.05.05,27.48,19.19,46.67,46.85,47.51,8.82.27,17.66.02,26.49.07,29.72.15,44.21,14.65,44.29,44.41.06,20.31,0,40.63,0,62.75h.02Z"/>
    <path class="cls-1" d="M656.04,450.45c26.17-.22,42.14,10.5,45.35,31.41.99,6.44.32,13.77-1.83,19.93-6.01,17.26-20.41,24.67-44.92,24.59-22.16-.07-36.18-8.2-42.63-24.71-8.96-22.97,6.9-48.44,32-51.17,3.96-.43,8.01-.06,12.02-.06h0Z"/>
    <path class="cls-1" d="M795.34,529.01c-10.27-3.7-21.52-5.82-30.58-11.47-13.16-8.22-17.93-24.64-13.3-39.35,8.4-26.69,32.4-32.87,63.89-25.8,21.01,4.71,32.05,27.14,25.54,47.14-5.94,18.27-20.22,26.88-45.54,29.5h-.01Z"/>
    <path class="cls-1" d="M517.9,526.35c-34.24,2.44-49.6-22.96-46.28-43.71,2.36-14.74,12.86-28.04,28.26-30.73,20.33-3.53,41.17-5.44,56.22,13.74,9.5,12.09,10.36,28.46,2.42,41.72-9.39,15.69-24.18,19.93-40.64,18.98h.01Z"/>
  </g>
</svg>