<svg width="623" height="684" viewBox="0 0 623 684" fill="none" xmlns="http://www.w3.org/2000/svg">
<path d="M228.186 683.034C216.266 683.034 204.346 682.34 192.768 680.975C164.516 677.643 124.101 667.514 91.9478 638.14C53.8261 603.317 49.9838 559.595 53.6419 524.32C32.3795 516.66 14.2227 498.771 5.91867 475.717C-3.93404 448.344 0.418925 419.983 5.31598 398.327C15.0096 355.442 30.8225 321.565 53.6587 294.744C73.9333 270.937 99.5821 253.759 127.073 245.037C103.157 202.529 100.896 148.46 123.314 103.7C155.835 38.7663 231.434 0 325.533 0C385.319 0 443.129 16.4407 484.147 45.1199C509.227 62.6488 526.48 84.2544 534.03 107.593C539.446 124.327 539.547 141.747 534.918 157.375C556.239 163.059 576.589 176.018 592.167 194.359C632.842 242.266 631.369 315.914 592.611 364.081C606.8 378.706 615.296 399.491 615.506 422.319C615.757 449.349 605.134 474.537 595.156 496.034C587.53 512.45 578.665 529.443 561.655 541.003C541.171 554.932 516.25 555.577 498.052 556.046C493.983 556.155 490.308 556.205 486.826 556.205C466.777 556.205 441.171 554.547 419.69 543.874C401.952 592.92 380.656 646.888 319.724 668.31C292.334 677.945 260.683 683.034 228.186 683.034Z" fill="#1F90A2"/>
</svg>
