<svg width="555" height="626" viewBox="0 0 555 626" fill="none" xmlns="http://www.w3.org/2000/svg">
<path d="M116.683 89.727C94.0815 135.709 101.557 194.867 136.732 232.57C101.892 234.119 69.5042 253.473 47.4633 279.85C25.414 306.227 12.7821 339.05 5.40721 372.316C0.67758 393.629 -1.95937 416.298 5.3318 436.907C12.6146 457.525 32.2196 475.33 54.5619 474.661C47.254 516.181 49.1123 556.22 82.3453 587.159C105.048 608.296 135.912 619.747 167.052 623.489C203.541 627.867 244.233 624.628 278.83 612.23C338.407 590.892 352.269 527.549 372.008 475.707C389.018 500.644 425.198 502.444 455.886 501.632C473.046 501.18 491.346 500.376 505.342 490.674C517.53 482.228 524.403 468.416 530.48 455.081C539.68 434.89 548.369 413.711 548.168 391.612C547.967 369.512 536.817 346.123 516.023 337.376C560.867 299.982 567.681 226.685 530.463 182.018C512.993 161.048 485.118 146.232 457.903 151.237C473.875 136.136 477.768 111.483 471.18 90.7567C464.592 70.03 448.971 52.9698 431.007 40.1705C343.463 -22.1602 168.793 -16.2754 116.683 89.727Z" fill="#D18686"/>
</svg>
