<?xml version="1.0" encoding="UTF-8"?>
<svg id="Layer_1" data-name="Layer 1" xmlns="http://www.w3.org/2000/svg" version="1.1" viewBox="0 0 1017.7 1080">
  <defs>
    <style>
      .cls-1 {
        fill: #6e4f9e;
        stroke-width: 0px;
      }
    </style>
  </defs>
  <path class="cls-1" d="M510.7,0c2.9.6,5.9,1.6,8.8,1.8,59.3,4.6,115.9,19.3,169,46,128.7,64.7,213.7,166.2,253.8,304.9,1.1,3.6,4.4,7.7,7.8,9.4,43.1,21.8,65.5,56.5,66.2,104.9.3,22.6.1,45.1,0,67.7-.1,67,.6,134.1-.7,201.1-.8,39-20.5,68.6-53.1,89.7-29.8,19.3-63.1,18-96.3,15.9-8.3-.5-12.2-7.5-11.7-15.5.5-8.2,5.5-13.4,13.8-14,10.2-.6,20.5-.3,30.8-.4,52.5-.6,86.4-34.6,86.4-87.2.1-84.8.2-169.6,0-254.5-.1-52.6-34.3-86.6-86.8-86.6-142.3,0-284.6,0-426.8,0-7.1,0-14.5.2-21.4,1.7-38.8,8.5-64.9,40.9-65,81.3-.2,85.5,0,171,0,256.5,0,54.3,33.9,88.4,88.2,88.7,26,.1,52,0,78,0,18,0,22.5,4.5,22.5,22.3,0,29.1,0,58.1,0,87.2,0,10,5.7,16.2,14,14.7,4.3-.8,8.7-3.8,12.2-6.7,43.2-36.8,86.2-73.8,129.6-110.5,4.1-3.5,10.1-6.4,15.4-6.6,16.4-.8,32.8-.5,49.2-.2,10.4.2,17,6.6,16.9,15.4,0,8.8-6.6,14.8-17.1,15.1-10.9.3-21.9.7-32.8,0-8.9-.6-15.4,2.5-22,8.2-39.8,34.5-80.1,68.4-119.8,102.9-15.1,13.1-31.4,18.1-50.1,9.8-19-8.5-26.6-24.2-26.3-44.7.4-24.9,0-49.8,0-76.1-4.4,0-8.1,0-11.7,0-21.9,0-43.8.6-65.7-.3-65.7-2.8-111.2-50.5-111.3-116.4-.1-85.5-.1-171,.1-256.5,0-9.8.8-19.9,3.1-29.4,12.5-53,56.8-87.1,113.1-87.1,119.7-.1,239.4,0,359.1,0,4,0,8,0,12.3,0-44.8-145-215.1-295.5-438.3-250.9-220.7,44.1-335.7,254.8-303.4,433.9,3.2-3.3,7-7.1,7.4-11.2,3.4-35,25.2-60.2,56.8-64.5,32.7-4.4,60.7,13.4,72.9,46.8,10.6,28.8,21.1,57.7,31.6,86.6,19.9,54.5,39.8,109,59.5,163.6,8.9,24.5,5.3,47.5-11.8,67.2-16.8,19.3-38.5,26.5-63.8,21.4-16-3.2-28.6-12.2-40-24,9.3,24.7,18.3,49.3,30.2,72.5,8.8,17.3,25.8,24.9,45.2,25.3,19.5.4,39-.1,58.5.2,6,.1,9.8-1.7,13.7-6.5,20.8-24.8,47.8-35,79.6-29.4,38.4,6.7,65.6,37.2,69.4,76,3.5,35-18,70.3-51.4,84.5-34.4,14.7-73.3,4.7-98.3-24.6-2.6-3.1-7.7-5.5-11.8-5.7-18.1-.6-36.2-.2-54.4-.3-67.7,0-119.5-34.9-144.9-97.6-12.4-30.7-24.5-61.5-37.2-92.1-1.9-4.7-5.6-9.2-9.7-12.4-11.3-8.9-20.3-19.3-25.3-32.9-4.9-13.1-9.7-26.2-14.4-39.4-4-11.5-1-19.9,8-23,9.2-3.2,16.6,1.2,20.9,12.6,4.8,12.8,9.2,25.7,14.1,38.4,5.8,15,17,25.1,32.8,25.7,20.2.7,40.4-1.5,61.9-2.6-28.1-77.2-55.5-152.4-83.4-229-15.3,11.3-29.7,21.5-43.7,32.3-15.3,11.9-19.9,28.2-14,46.7,1.5,4.5,3.4,8.9,4.9,13.5,3.5,10.9.4,18.6-8.6,22-8.7,3.2-16.5-.9-20.3-11.9-4.1-11.9-7.2-24.2-11-36.2-32.2-101.7-33.9-204,2.7-304.1C90,151.5,212.8,46.1,392.6,8.2,411.2,4.3,430.3,2.7,449.1,0c20.5,0,41,0,61.6,0ZM50.1,573.1c20.2-9.3,19.8-24.8,17.3-44.3-23.9-190.9,88.2-374.1,268.6-440.3,188.3-69.1,398.9,5.3,501,178.1,14.5,24.5,24.9,51.6,36.4,77.8,2.6,6,5,8.7,11.6,8.3,7.7-.5,15.6-.1,25.9-.1-46.4-140-133.8-241.4-270.9-291.3C460.9-3.9,297.7,30.4,161.9,164.6,46.6,278.5,12.4,419.9,42.2,580.1c3.9-3.5,5.6-5.9,7.9-7ZM142.2,539.8c30.4,83.7,60.8,167.3,91.4,250.9,6.3,17.1,20.9,27.1,36.6,25.4,17-1.7,30.1-13.7,32.1-30.8.7-6.1-.5-13-2.7-18.9-30.2-83.7-60.6-167.4-91.1-251-6.8-18.7-22.8-28.1-40.8-24.8-16.1,3-28.3,17.6-28.6,36.9.6,2.3,1.3,7.4,3,12.2ZM426.4,1019.9c29.3-.2,53.5-24.6,53.3-53.9-.2-29.4-24.4-53.2-53.9-53-29.7.1-53.2,23.9-53,53.7.1,29.6,24.1,53.4,53.7,53.2ZM342.1,950.1c-15.5,0-30.8,0-46.1,0-44.6,0-72.3-18.8-89-60.3-7.9-19.6-16-39.2-23.4-59-2.5-6.6-5.8-9-12.8-8-7.7,1.1-15.5,1.2-24.4,1.9,1.3,3.9,2.1,6.8,3.2,9.5,9.5,23.8,19,47.5,28.6,71.2,20.1,49.5,61.3,77.2,114.6,77.4,16.3,0,32.6,0,49.3,0,0-11.3,0-21.4,0-32.7Z"/>
  <path class="cls-1" d="M686.2,556.5c69.1,0,138.1,0,207.2,0,4.1,0,9.4.8,11.9-1.4,4.2-3.7,9.1-9.5,8.9-14.3-.2-4.7-5.5-10.2-10-13.5-3.1-2.2-8.5-1.5-12.9-1.5-137.1,0-274.2,0-411.4,0-1.7,0-3.4,0-5.1,0-11.7.4-18.7,6.5-18.4,16.1.3,9.3,6.8,14.6,18.4,14.6,70.4,0,140.9,0,211.3,0Z"/>
  <path class="cls-1" d="M685.1,601.1c-68.4,0-136.8,0-205.2,0-3.1,0-6.2-.2-9.2.2-8.8.9-13.9,6-14.2,14.7-.3,8.8,4.7,14,13.2,15.7,3.3.6,6.8.3,10.2.3,137.1,0,274.3,0,411.4,0,16.3,0,23.9-5.2,23.6-16-.3-10.3-7.5-14.8-23.6-14.8-68.7,0-137.5,0-206.2,0Z"/>
  <path class="cls-1" d="M685.1,677.3c-68.4,0-136.8,0-205.2,0-3.1,0-6.2-.2-9.2.2-8.8.9-13.9,6-14.2,14.7-.3,8.8,4.7,14,13.2,15.7,3.3.6,6.8.3,10.2.3,137.1,0,274.3,0,411.4,0,16.3,0,23.9-5.2,23.6-16-.3-10.3-7.5-14.8-23.6-14.8-68.7,0-137.5,0-206.2,0Z"/>
</svg>