<?xml version="1.0" encoding="UTF-8"?>
<svg xmlns="http://www.w3.org/2000/svg" xmlns:xlink="http://www.w3.org/1999/xlink" width="18px" height="19px" viewBox="0 0 18 19" version="1.1">
<g id="surface1">
<path style=" stroke:none;fill-rule:nonzero;fill:rgb(43.137255%,30.980393%,61.960787%);fill-opacity:1;" d="M 9.03125 0 C 9.085938 0.0117188 9.136719 0.0273438 9.1875 0.03125 C 10.238281 0.113281 11.238281 0.371094 12.175781 0.839844 C 14.453125 1.980469 15.957031 3.765625 16.664062 6.203125 C 16.683594 6.269531 16.742188 6.339844 16.800781 6.371094 C 17.5625 6.753906 17.960938 7.363281 17.972656 8.214844 C 17.976562 8.613281 17.972656 9.007812 17.972656 9.40625 C 17.972656 10.585938 17.984375 11.765625 17.960938 12.945312 C 17.945312 13.628906 17.597656 14.152344 17.019531 14.523438 C 16.496094 14.863281 15.90625 14.839844 15.320312 14.800781 C 15.171875 14.792969 15.101562 14.671875 15.113281 14.53125 C 15.121094 14.386719 15.207031 14.292969 15.355469 14.285156 C 15.535156 14.273438 15.71875 14.277344 15.898438 14.277344 C 16.828125 14.265625 17.429688 13.667969 17.429688 12.742188 C 17.429688 11.25 17.429688 9.757812 17.429688 8.265625 C 17.425781 7.339844 16.820312 6.742188 15.894531 6.742188 C 13.378906 6.742188 10.859375 6.742188 8.347656 6.742188 C 8.222656 6.742188 8.089844 6.746094 7.96875 6.769531 C 7.28125 6.921875 6.820312 7.492188 6.820312 8.203125 C 6.816406 9.707031 6.820312 11.210938 6.820312 12.714844 C 6.820312 13.667969 7.417969 14.269531 8.378906 14.273438 C 8.839844 14.277344 9.296875 14.273438 9.757812 14.273438 C 10.074219 14.273438 10.15625 14.355469 10.15625 14.667969 C 10.15625 15.179688 10.15625 15.6875 10.15625 16.199219 C 10.15625 16.375 10.257812 16.484375 10.402344 16.460938 C 10.480469 16.445312 10.558594 16.394531 10.617188 16.339844 C 11.382812 15.695312 12.144531 15.042969 12.910156 14.398438 C 12.984375 14.335938 13.089844 14.285156 13.183594 14.28125 C 13.472656 14.269531 13.761719 14.273438 14.050781 14.277344 C 14.238281 14.28125 14.351562 14.394531 14.351562 14.550781 C 14.351562 14.703125 14.234375 14.808594 14.050781 14.816406 C 13.855469 14.820312 13.660156 14.828125 13.46875 14.816406 C 13.3125 14.804688 13.195312 14.859375 13.078125 14.957031 C 12.375 15.566406 11.664062 16.164062 10.960938 16.769531 C 10.695312 17 10.40625 17.085938 10.074219 16.941406 C 9.738281 16.792969 9.605469 16.515625 9.609375 16.15625 C 9.617188 15.71875 9.609375 15.277344 9.609375 14.816406 C 9.53125 14.816406 9.46875 14.816406 9.402344 14.816406 C 9.015625 14.816406 8.628906 14.828125 8.242188 14.8125 C 7.082031 14.761719 6.277344 13.921875 6.273438 12.761719 C 6.273438 11.257812 6.273438 9.753906 6.277344 8.25 C 6.277344 8.078125 6.289062 7.902344 6.332031 7.734375 C 6.550781 6.800781 7.335938 6.203125 8.332031 6.203125 C 10.445312 6.199219 12.5625 6.203125 14.679688 6.203125 C 14.75 6.203125 14.820312 6.203125 14.898438 6.203125 C 14.105469 3.652344 11.09375 1.003906 7.148438 1.789062 C 3.246094 2.5625 1.210938 6.269531 1.78125 9.421875 C 1.839844 9.363281 1.90625 9.296875 1.914062 9.222656 C 1.972656 8.609375 2.359375 8.164062 2.917969 8.089844 C 3.496094 8.011719 3.992188 8.324219 4.207031 8.914062 C 4.394531 9.417969 4.582031 9.925781 4.765625 10.4375 C 5.117188 11.394531 5.46875 12.355469 5.816406 13.3125 C 5.976562 13.746094 5.910156 14.148438 5.609375 14.496094 C 5.3125 14.835938 4.929688 14.960938 4.480469 14.871094 C 4.199219 14.816406 3.976562 14.65625 3.773438 14.449219 C 3.9375 14.886719 4.097656 15.316406 4.308594 15.726562 C 4.464844 16.03125 4.765625 16.164062 5.105469 16.171875 C 5.453125 16.179688 5.796875 16.167969 6.140625 16.175781 C 6.246094 16.175781 6.316406 16.144531 6.382812 16.058594 C 6.75 15.625 7.230469 15.445312 7.792969 15.542969 C 8.46875 15.660156 8.953125 16.199219 9.019531 16.878906 C 9.082031 17.496094 8.699219 18.117188 8.109375 18.367188 C 7.5 18.625 6.8125 18.449219 6.371094 17.933594 C 6.324219 17.878906 6.234375 17.835938 6.164062 17.832031 C 5.84375 17.824219 5.523438 17.832031 5.199219 17.828125 C 4.003906 17.828125 3.089844 17.214844 2.640625 16.109375 C 2.417969 15.570312 2.207031 15.03125 1.980469 14.492188 C 1.949219 14.410156 1.882812 14.328125 1.808594 14.273438 C 1.609375 14.117188 1.449219 13.933594 1.363281 13.695312 C 1.277344 13.464844 1.191406 13.234375 1.109375 13 C 1.035156 12.796875 1.089844 12.652344 1.25 12.597656 C 1.410156 12.539062 1.542969 12.617188 1.617188 12.816406 C 1.703125 13.042969 1.78125 13.269531 1.867188 13.492188 C 1.96875 13.757812 2.167969 13.933594 2.449219 13.945312 C 2.804688 13.957031 3.164062 13.917969 3.542969 13.898438 C 3.046875 12.542969 2.5625 11.21875 2.066406 9.871094 C 1.796875 10.070312 1.542969 10.25 1.296875 10.4375 C 1.023438 10.648438 0.941406 10.9375 1.046875 11.261719 C 1.074219 11.339844 1.109375 11.417969 1.132812 11.5 C 1.195312 11.691406 1.140625 11.824219 0.980469 11.886719 C 0.828125 11.941406 0.691406 11.871094 0.625 11.675781 C 0.550781 11.46875 0.496094 11.25 0.429688 11.039062 C -0.140625 9.25 -0.171875 7.449219 0.476562 5.6875 C 1.59375 2.664062 3.765625 0.8125 6.945312 0.144531 C 7.273438 0.0742188 7.609375 0.046875 7.945312 0 C 8.304688 0 8.667969 0 9.03125 0 Z M 0.886719 10.082031 C 1.246094 9.917969 1.238281 9.644531 1.195312 9.304688 C 0.773438 5.945312 2.753906 2.722656 5.945312 1.558594 C 9.273438 0.339844 12.996094 1.648438 14.800781 4.691406 C 15.058594 5.121094 15.242188 5.597656 15.445312 6.058594 C 15.492188 6.164062 15.535156 6.210938 15.652344 6.203125 C 15.789062 6.195312 15.925781 6.203125 16.109375 6.203125 C 15.289062 3.738281 13.742188 1.957031 11.320312 1.078125 C 8.152344 -0.0703125 5.265625 0.535156 2.867188 2.894531 C 0.828125 4.898438 0.222656 7.386719 0.75 10.207031 C 0.816406 10.144531 0.847656 10.101562 0.886719 10.082031 Z M 2.515625 9.496094 C 3.054688 10.96875 3.59375 12.441406 4.132812 13.910156 C 4.246094 14.210938 4.503906 14.386719 4.78125 14.355469 C 5.082031 14.328125 5.3125 14.117188 5.347656 13.816406 C 5.359375 13.707031 5.339844 13.585938 5.300781 13.484375 C 4.765625 12.011719 4.230469 10.539062 3.6875 9.066406 C 3.570312 8.738281 3.285156 8.574219 2.96875 8.632812 C 2.683594 8.683594 2.46875 8.941406 2.460938 9.28125 C 2.472656 9.320312 2.484375 9.410156 2.515625 9.496094 Z M 7.542969 17.941406 C 8.058594 17.9375 8.488281 17.511719 8.484375 16.996094 C 8.480469 16.476562 8.054688 16.058594 7.53125 16.0625 C 7.007812 16.0625 6.589844 16.484375 6.59375 17.007812 C 6.597656 17.527344 7.019531 17.945312 7.542969 17.941406 Z M 6.050781 16.714844 C 5.777344 16.714844 5.507812 16.714844 5.238281 16.714844 C 4.449219 16.714844 3.957031 16.382812 3.664062 15.652344 C 3.523438 15.308594 3.378906 14.964844 3.25 14.617188 C 3.203125 14.5 3.144531 14.457031 3.023438 14.476562 C 2.886719 14.496094 2.75 14.496094 2.589844 14.507812 C 2.613281 14.578125 2.628906 14.628906 2.648438 14.675781 C 2.816406 15.09375 2.984375 15.511719 3.152344 15.929688 C 3.507812 16.800781 4.238281 17.285156 5.179688 17.289062 C 5.46875 17.289062 5.757812 17.289062 6.050781 17.289062 C 6.050781 17.089844 6.050781 16.914062 6.050781 16.714844 Z M 6.050781 16.714844 "/>
<path style=" stroke:none;fill-rule:nonzero;fill:rgb(43.137255%,30.980393%,61.960787%);fill-opacity:1;" d="M 12.136719 9.789062 C 13.359375 9.789062 14.578125 9.789062 15.800781 9.789062 C 15.871094 9.789062 15.964844 9.804688 16.011719 9.765625 C 16.085938 9.699219 16.171875 9.597656 16.167969 9.515625 C 16.164062 9.429688 16.070312 9.335938 15.992188 9.277344 C 15.9375 9.238281 15.839844 9.25 15.761719 9.25 C 13.339844 9.25 10.914062 9.25 8.488281 9.25 C 8.457031 9.25 8.429688 9.25 8.398438 9.25 C 8.191406 9.257812 8.066406 9.363281 8.074219 9.535156 C 8.078125 9.695312 8.191406 9.789062 8.398438 9.789062 C 9.644531 9.789062 10.890625 9.789062 12.132812 9.789062 Z M 12.136719 9.789062 "/>
<path style=" stroke:none;fill-rule:nonzero;fill:rgb(43.137255%,30.980393%,61.960787%);fill-opacity:1;" d="M 12.117188 10.574219 C 10.90625 10.574219 9.699219 10.574219 8.488281 10.574219 C 8.433594 10.574219 8.378906 10.570312 8.324219 10.578125 C 8.167969 10.59375 8.078125 10.683594 8.074219 10.835938 C 8.070312 10.992188 8.15625 11.082031 8.308594 11.113281 C 8.367188 11.125 8.429688 11.117188 8.488281 11.117188 C 10.914062 11.117188 13.339844 11.117188 15.761719 11.117188 C 16.050781 11.117188 16.183594 11.027344 16.179688 10.835938 C 16.175781 10.65625 16.046875 10.578125 15.761719 10.578125 C 14.546875 10.578125 13.332031 10.578125 12.117188 10.578125 Z M 12.117188 10.574219 "/>
<path style=" stroke:none;fill-rule:nonzero;fill:rgb(43.137255%,30.980393%,61.960787%);fill-opacity:1;" d="M 12.117188 11.914062 C 10.90625 11.914062 9.699219 11.914062 8.488281 11.914062 C 8.433594 11.914062 8.378906 11.910156 8.324219 11.917969 C 8.167969 11.933594 8.078125 12.023438 8.074219 12.175781 C 8.070312 12.332031 8.15625 12.425781 8.308594 12.453125 C 8.367188 12.464844 8.429688 12.460938 8.488281 12.460938 C 10.914062 12.460938 13.339844 12.460938 15.761719 12.460938 C 16.050781 12.460938 16.183594 12.367188 16.179688 12.175781 C 16.175781 11.996094 16.046875 11.917969 15.761719 11.917969 C 14.546875 11.917969 13.332031 11.917969 12.117188 11.917969 Z M 12.117188 11.914062 "/>
</g>
</svg>
