<?xml version="1.0" encoding="UTF-8"?>
<svg xmlns="http://www.w3.org/2000/svg" xmlns:xlink="http://www.w3.org/1999/xlink" width="24px" height="px" viewBox="0 0 24 25" version="1.1">
<g id="surface1">
<path style=" stroke:none;fill-rule:nonzero;fill:rgb(43.137255%,30.980393%,61.960787%);fill-opacity:1;" d="M 12.042969 0 C 12.113281 0.015625 12.183594 0.0351562 12.25 0.0429688 C 13.648438 0.148438 14.984375 0.488281 16.234375 1.105469 C 19.269531 2.605469 21.273438 4.953125 22.21875 8.164062 C 22.246094 8.246094 22.324219 8.34375 22.402344 8.382812 C 23.417969 8.886719 23.945312 9.691406 23.964844 10.808594 C 23.96875 11.332031 23.964844 11.855469 23.964844 12.378906 C 23.960938 13.929688 23.976562 15.480469 23.945312 17.03125 C 23.929688 17.933594 23.464844 18.621094 22.695312 19.109375 C 21.992188 19.554688 21.207031 19.527344 20.425781 19.476562 C 20.230469 19.464844 20.136719 19.304688 20.148438 19.117188 C 20.160156 18.929688 20.277344 18.808594 20.472656 18.792969 C 20.714844 18.78125 20.957031 18.785156 21.199219 18.785156 C 22.4375 18.769531 23.238281 17.984375 23.238281 16.765625 C 23.238281 14.804688 23.242188 12.839844 23.238281 10.875 C 23.234375 9.65625 22.429688 8.871094 21.191406 8.871094 C 17.835938 8.871094 14.480469 8.871094 11.128906 8.871094 C 10.960938 8.871094 10.785156 8.875 10.625 8.910156 C 9.710938 9.105469 9.09375 9.855469 9.09375 10.792969 C 9.085938 12.769531 9.09375 14.75 9.09375 16.730469 C 9.09375 17.984375 9.890625 18.777344 11.171875 18.78125 C 11.785156 18.785156 12.398438 18.78125 13.011719 18.78125 C 13.433594 18.78125 13.539062 18.886719 13.539062 19.296875 C 13.539062 19.972656 13.539062 20.644531 13.539062 21.316406 C 13.539062 21.546875 13.675781 21.691406 13.871094 21.65625 C 13.972656 21.640625 14.074219 21.570312 14.160156 21.503906 C 15.175781 20.652344 16.191406 19.792969 17.214844 18.945312 C 17.308594 18.863281 17.453125 18.796875 17.578125 18.792969 C 17.964844 18.773438 18.351562 18.78125 18.738281 18.785156 C 18.980469 18.792969 19.136719 18.941406 19.136719 19.144531 C 19.136719 19.347656 18.980469 19.484375 18.730469 19.492188 C 18.476562 19.5 18.214844 19.507812 17.957031 19.492188 C 17.75 19.480469 17.59375 19.550781 17.441406 19.683594 C 16.5 20.480469 15.550781 21.265625 14.617188 22.066406 C 14.257812 22.367188 13.875 22.484375 13.433594 22.292969 C 12.988281 22.09375 12.808594 21.730469 12.816406 21.257812 C 12.824219 20.679688 12.816406 20.105469 12.816406 19.496094 C 12.710938 19.496094 12.625 19.496094 12.539062 19.496094 C 12.023438 19.496094 11.507812 19.507812 10.988281 19.488281 C 9.441406 19.421875 8.367188 18.320312 8.367188 16.792969 C 8.363281 14.816406 8.363281 12.835938 8.367188 10.855469 C 8.367188 10.628906 8.386719 10.394531 8.441406 10.175781 C 8.734375 8.949219 9.78125 8.160156 11.109375 8.160156 C 13.929688 8.15625 16.75 8.160156 19.574219 8.160156 C 19.667969 8.160156 19.761719 8.160156 19.863281 8.160156 C 18.808594 4.804688 14.792969 1.320312 9.53125 2.351562 C 4.328125 3.371094 1.617188 8.25 2.378906 12.394531 C 2.453125 12.320312 2.542969 12.230469 2.550781 12.136719 C 2.632812 11.328125 3.144531 10.742188 3.890625 10.644531 C 4.660156 10.542969 5.320312 10.953125 5.609375 11.726562 C 5.859375 12.394531 6.105469 13.0625 6.355469 13.730469 C 6.824219 14.992188 7.292969 16.253906 7.757812 17.519531 C 7.96875 18.085938 7.882812 18.617188 7.480469 19.074219 C 7.082031 19.519531 6.570312 19.6875 5.976562 19.570312 C 5.597656 19.496094 5.300781 19.285156 5.03125 19.015625 C 5.25 19.585938 5.464844 20.15625 5.746094 20.691406 C 5.953125 21.09375 6.351562 21.269531 6.808594 21.277344 C 7.269531 21.285156 7.730469 21.277344 8.1875 21.28125 C 8.332031 21.285156 8.421875 21.242188 8.511719 21.132812 C 9.003906 20.558594 9.640625 20.320312 10.386719 20.453125 C 11.292969 20.605469 11.933594 21.3125 12.023438 22.210938 C 12.105469 23.019531 11.601562 23.839844 10.8125 24.167969 C 10.003906 24.507812 9.085938 24.277344 8.496094 23.597656 C 8.433594 23.527344 8.3125 23.46875 8.21875 23.464844 C 7.789062 23.453125 7.363281 23.460938 6.933594 23.457031 C 5.339844 23.457031 4.117188 22.652344 3.519531 21.199219 C 3.226562 20.488281 2.941406 19.777344 2.640625 19.066406 C 2.597656 18.957031 2.507812 18.855469 2.414062 18.78125 C 2.148438 18.574219 1.933594 18.332031 1.816406 18.019531 C 1.699219 17.714844 1.585938 17.410156 1.476562 17.105469 C 1.382812 16.839844 1.453125 16.644531 1.664062 16.574219 C 1.882812 16.5 2.058594 16.601562 2.160156 16.867188 C 2.273438 17.160156 2.375 17.460938 2.492188 17.753906 C 2.628906 18.101562 2.890625 18.335938 3.265625 18.347656 C 3.742188 18.367188 4.214844 18.316406 4.722656 18.289062 C 4.0625 16.503906 3.414062 14.761719 2.757812 12.988281 C 2.394531 13.25 2.058594 13.484375 1.726562 13.734375 C 1.367188 14.011719 1.257812 14.390625 1.398438 14.816406 C 1.433594 14.921875 1.476562 15.023438 1.511719 15.128906 C 1.59375 15.382812 1.523438 15.558594 1.308594 15.640625 C 1.105469 15.714844 0.921875 15.617188 0.832031 15.363281 C 0.734375 15.089844 0.660156 14.804688 0.570312 14.527344 C -0.1875 12.171875 -0.226562 9.804688 0.636719 7.484375 C 2.125 3.507812 5.019531 1.066406 9.257812 0.191406 C 9.699219 0.0976562 10.148438 0.0625 10.589844 0 C 11.074219 0 11.558594 0 12.042969 0 Z M 1.183594 13.265625 C 1.660156 13.050781 1.652344 12.691406 1.59375 12.242188 C 1.027344 7.820312 3.671875 3.582031 7.925781 2.046875 C 12.363281 0.449219 17.328125 2.171875 19.738281 6.171875 C 20.078125 6.738281 20.324219 7.367188 20.59375 7.972656 C 20.65625 8.109375 20.710938 8.171875 20.867188 8.164062 C 21.050781 8.152344 21.234375 8.160156 21.480469 8.160156 C 20.382812 4.921875 18.324219 2.574219 15.09375 1.417969 C 10.871094 -0.0898438 7.023438 0.703125 3.820312 3.808594 C 1.101562 6.445312 0.296875 9.71875 1 13.429688 C 1.089844 13.347656 1.128906 13.292969 1.183594 13.265625 Z M 3.355469 12.496094 C 4.074219 14.433594 4.789062 16.367188 5.511719 18.304688 C 5.660156 18.699219 6.003906 18.929688 6.375 18.890625 C 6.773438 18.851562 7.082031 18.574219 7.128906 18.179688 C 7.148438 18.035156 7.117188 17.878906 7.066406 17.742188 C 6.355469 15.804688 5.636719 13.867188 4.917969 11.929688 C 4.757812 11.496094 4.382812 11.28125 3.957031 11.355469 C 3.578125 11.425781 3.289062 11.765625 3.28125 12.210938 C 3.296875 12.265625 3.3125 12.382812 3.355469 12.492188 Z M 10.054688 23.609375 C 10.746094 23.605469 11.316406 23.039062 11.3125 22.359375 C 11.308594 21.679688 10.738281 21.128906 10.042969 21.132812 C 9.34375 21.136719 8.789062 21.6875 8.792969 22.378906 C 8.792969 23.0625 9.359375 23.613281 10.058594 23.609375 Z M 8.070312 21.992188 C 7.703125 21.992188 7.34375 21.992188 6.980469 21.992188 C 5.929688 21.992188 5.277344 21.558594 4.882812 20.597656 C 4.699219 20.144531 4.507812 19.691406 4.332031 19.230469 C 4.273438 19.078125 4.195312 19.023438 4.03125 19.046875 C 3.847656 19.070312 3.664062 19.074219 3.453125 19.089844 C 3.484375 19.179688 3.503906 19.246094 3.53125 19.308594 C 3.753906 19.859375 3.976562 20.410156 4.203125 20.957031 C 4.679688 22.105469 5.648438 22.746094 6.90625 22.75 C 7.289062 22.75 7.675781 22.75 8.070312 22.75 C 8.070312 22.488281 8.070312 22.253906 8.070312 21.992188 Z M 8.070312 21.992188 "/>
<path style=" stroke:none;fill-rule:nonzero;fill:rgb(43.137255%,30.980393%,61.960787%);fill-opacity:1;" d="M 16.179688 12.882812 C 17.808594 12.882812 19.4375 12.882812 21.066406 12.882812 C 21.164062 12.882812 21.289062 12.902344 21.347656 12.847656 C 21.445312 12.765625 21.5625 12.628906 21.554688 12.519531 C 21.550781 12.410156 21.425781 12.28125 21.320312 12.207031 C 21.246094 12.15625 21.121094 12.171875 21.015625 12.171875 C 17.785156 12.171875 14.550781 12.171875 11.316406 12.171875 C 11.277344 12.171875 11.238281 12.171875 11.195312 12.171875 C 10.921875 12.179688 10.757812 12.320312 10.761719 12.542969 C 10.769531 12.757812 10.921875 12.882812 11.195312 12.882812 C 12.855469 12.882812 14.519531 12.882812 16.179688 12.882812 Z M 16.179688 12.882812 "/>
<path style=" stroke:none;fill-rule:nonzero;fill:rgb(43.137255%,30.980393%,61.960787%);fill-opacity:1;" d="M 16.15625 13.914062 C 14.542969 13.914062 12.929688 13.914062 11.316406 13.914062 C 11.246094 13.914062 11.171875 13.910156 11.101562 13.917969 C 10.894531 13.941406 10.773438 14.058594 10.765625 14.257812 C 10.757812 14.464844 10.875 14.582031 11.078125 14.621094 C 11.15625 14.636719 11.238281 14.628906 11.316406 14.628906 C 14.550781 14.628906 17.785156 14.628906 21.015625 14.628906 C 21.402344 14.628906 21.578125 14.507812 21.574219 14.257812 C 21.566406 14.019531 21.394531 13.917969 21.015625 13.917969 C 19.398438 13.917969 17.773438 13.917969 16.15625 13.917969 Z M 16.15625 13.914062 "/>
<path style=" stroke:none;fill-rule:nonzero;fill:rgb(43.137255%,30.980393%,61.960787%);fill-opacity:1;" d="M 16.15625 15.679688 C 14.542969 15.679688 12.929688 15.679688 11.316406 15.679688 C 11.246094 15.679688 11.171875 15.671875 11.101562 15.683594 C 10.894531 15.703125 10.773438 15.820312 10.765625 16.023438 C 10.757812 16.226562 10.875 16.347656 11.078125 16.386719 C 11.15625 16.402344 11.238281 16.394531 11.316406 16.394531 C 14.550781 16.394531 17.785156 16.394531 21.015625 16.394531 C 21.402344 16.394531 21.578125 16.273438 21.574219 16.023438 C 21.566406 15.785156 21.394531 15.679688 21.015625 15.679688 C 19.398438 15.679688 17.773438 15.679688 16.15625 15.679688 Z M 16.15625 15.679688 "/>
</g>
</svg>
