<?xml version="1.0" encoding="UTF-8"?>
<svg xmlns="http://www.w3.org/2000/svg" xmlns:xlink="http://www.w3.org/1999/xlink" width="24px" height="px" viewBox="0 0 24 25" version="1.1">
<g id="surface1">
<path style=" stroke:none;fill-rule:nonzero;fill:rgb(43.137255%,30.980393%,61.960787%);fill-opacity:1;" d="M 7.085938 1.785156 C 7.652344 1.785156 8.21875 1.785156 8.785156 1.785156 C 9.117188 1.785156 9.324219 1.964844 9.324219 2.230469 C 9.324219 2.5 9.117188 2.675781 8.785156 2.675781 C 7.632812 2.679688 6.480469 2.679688 5.328125 2.675781 C 4.992188 2.675781 4.792969 2.503906 4.792969 2.230469 C 4.792969 1.960938 4.992188 1.789062 5.328125 1.785156 C 5.917969 1.785156 6.5 1.785156 7.089844 1.785156 Z M 7.085938 1.785156 "/>
<path style=" stroke:none;fill-rule:nonzero;fill:rgb(43.137255%,30.980393%,61.960787%);fill-opacity:1;" d="M 9.09375 19.289062 C 9.277344 18.742188 9.449219 18.230469 9.625 17.71875 C 9.75 17.355469 9.871094 16.988281 10.003906 16.625 C 10.039062 16.519531 10.027344 16.445312 9.964844 16.355469 C 9.015625 14.984375 8.515625 13.46875 8.597656 11.8125 C 8.742188 8.941406 10.101562 6.75 12.679688 5.382812 C 15.808594 3.71875 19.5625 4.371094 21.980469 6.9375 C 23.222656 8.257812 23.890625 9.839844 23.984375 11.632812 C 24.148438 14.859375 22.324219 17.769531 19.289062 19.011719 C 16.871094 20.003906 14.5 19.804688 12.242188 18.476562 C 12.101562 18.394531 11.992188 18.378906 11.839844 18.429688 C 10.972656 18.710938 10.097656 18.980469 9.230469 19.253906 C 9.195312 19.261719 9.164062 19.269531 9.09375 19.289062 Z M 18.625 16.304688 C 18.980469 16.300781 19.289062 16.246094 19.535156 16.019531 C 19.824219 15.757812 20.109375 15.492188 20.382812 15.214844 C 20.691406 14.90625 20.71875 14.339844 20.421875 14.027344 C 20.015625 13.605469 19.59375 13.191406 19.160156 12.796875 C 18.742188 12.417969 18.101562 12.582031 17.886719 13.101562 C 17.675781 13.605469 17.226562 13.796875 16.714844 13.585938 C 16.097656 13.332031 15.613281 12.914062 15.195312 12.410156 C 14.96875 12.132812 14.78125 11.839844 14.683594 11.492188 C 14.550781 11.035156 14.742188 10.667969 15.199219 10.503906 C 15.777344 10.296875 15.933594 9.644531 15.5 9.207031 C 15.113281 8.820312 14.722656 8.441406 14.332031 8.058594 C 13.957031 7.699219 13.445312 7.695312 13.074219 8.054688 C 12.816406 8.300781 12.566406 8.554688 12.316406 8.800781 C 12.132812 8.980469 12.035156 9.195312 12 9.441406 C 11.929688 9.996094 12.074219 10.511719 12.308594 10.996094 C 13.316406 13.09375 14.890625 14.664062 16.941406 15.792969 C 17.472656 16.082031 18.042969 16.277344 18.628906 16.304688 Z M 18.625 16.304688 "/>
<path style=" stroke:none;fill-rule:nonzero;fill:rgb(43.137255%,30.980393%,61.960787%);fill-opacity:1;" d="M 13.199219 16.496094 C 13.199219 18.21875 13.199219 19.941406 13.203125 21.660156 C 13.203125 22.667969 12.796875 23.421875 11.855469 23.847656 C 11.574219 23.972656 11.238281 24.042969 10.929688 24.046875 C 8.347656 24.0625 5.769531 24.0625 3.1875 24.054688 C 1.878906 24.046875 0.921875 23.070312 0.921875 21.742188 C 0.914062 18.953125 0.921875 16.160156 0.921875 13.367188 L 0.921875 12.445312 C 0.921875 9.378906 0.921875 6.304688 0.921875 3.234375 C 0.921875 2.132812 1.515625 1.300781 2.527344 1.003906 C 2.765625 0.929688 3.027344 0.902344 3.277344 0.902344 C 5.800781 0.894531 8.324219 0.894531 10.847656 0.894531 C 12.21875 0.894531 13.1875 1.832031 13.199219 3.179688 C 13.207031 4.308594 13.207031 5.441406 13.203125 6.570312 L 14.109375 6.222656 C 14.109375 5.253906 14.109375 4.28125 14.109375 3.308594 C 14.109375 3.207031 14.105469 3.105469 14.101562 3.003906 C 14.027344 1.339844 12.683594 0.0234375 10.984375 0.0117188 C 8.367188 -0.00390625 5.75 -0.00390625 3.128906 0.0195312 C 2.699219 0.0273438 2.234375 0.132812 1.847656 0.3125 C 0.605469 0.894531 0.0078125 1.902344 0.0078125 3.257812 C 0.0078125 6.328125 0.0078125 9.398438 0.0078125 12.46875 C 0.0078125 13.445312 0.0078125 14.417969 0.0078125 15.390625 C 0.0078125 17.582031 -0.0117188 19.769531 0.0234375 21.957031 C 0.0546875 23.605469 1.433594 24.921875 3.117188 24.9375 C 5.746094 24.957031 8.371094 24.957031 11 24.929688 C 11.4375 24.921875 11.910156 24.808594 12.304688 24.621094 C 13.542969 24.027344 14.109375 23.003906 14.109375 21.652344 C 14.109375 20.171875 14.109375 18.695312 14.109375 17.21875 L 13.203125 16.492188 Z M 13.199219 16.496094 "/>
</g>
</svg>
