<svg width="337" height="293" viewBox="0 0 337 293" fill="none" xmlns="http://www.w3.org/2000/svg">
<path d="M336.283 240.016C333.256 263.033 320.698 284.343 287.498 290.733C247.485 298.433 204.768 284.056 164.595 283.934C127.549 283.821 88.4576 298.065 52.2751 287.584C27.1154 280.293 4.54335 263.268 0.888543 243.861C-0.134802 238.472 -0.237122 233.053 0.391504 227.633C3.18377 203.757 12.4085 180.597 18.1392 157.048C23.8407 133.632 17.5545 110.012 12.7447 86.821C8.47592 66.1864 2.14581 43.5476 15.654 23.8333C27.2031 6.98201 50.5208 1.93072 75.1688 0.315129C112.141 -2.11849 146.876 10.4484 184.097 7.08426C213.657 4.39501 242.793 -2.04691 272.894 0.857069C289.194 2.44199 303.726 7.37057 314.164 16.5529C335.786 35.5821 328.651 62.7711 322.57 84.5612C316.795 105.278 311.05 126.188 316.547 147.263C324.719 178.624 340.551 207.51 336.283 240.016Z" fill="#1F90A2"/>
</svg>
