<svg width="631" height="604" viewBox="0 0 631 604" fill="none" xmlns="http://www.w3.org/2000/svg">
<path d="M35.4814 167.394C63.1039 155.679 108.682 152.702 138.417 158.368C188.733 167.97 263.023 171.715 278.93 110.133C286.484 80.8777 268.112 12.5417 313.466 1.91527C372.072 -11.7839 401.679 60.681 455.419 59.3687C479.233 58.7925 501.414 33.4106 526.412 40.4523C574.935 54.1194 552.466 133.434 570.102 167.618C585.402 197.289 634.053 214.349 629.892 254.966C626.179 291.615 582.681 299.553 558.74 318.181C490.084 371.601 501.158 431.519 524.524 504.272C535.15 537.368 537.999 568.063 493.476 590.084C430.39 621.26 347.394 593.349 300.311 548.763C265.135 515.475 224.229 462.119 167.512 478.41C132.048 488.589 53.0856 559.869 16.7571 520.436C-15.0903 485.836 48.8925 437.665 57.7266 409.882C79.0756 342.635 -63.3256 209.292 35.4814 167.394Z" fill="#898989"/>
</svg>
