<?xml version="1.0" encoding="UTF-8"?>
<svg id="Layer_1" data-name="Layer 1" xmlns="http://www.w3.org/2000/svg" version="1.1" viewBox="0 0 1017.7 1080">
  <defs>
    <style>
      .cls-1 {
        fill: #6e4f9e;
        stroke-width: 0px;
      }
    </style>
  </defs>
  <path class="cls-1" d="M300.4,77.2c24,0,48.1-.1,72.1,0,14.1,0,22.8,7.6,22.8,19.2,0,11.6-8.7,19.2-22.8,19.2-48.9.1-97.8.1-146.7,0-14.2,0-22.7-7.5-22.7-19.2,0-11.7,8.5-19.1,22.8-19.2,24.9-.1,49.7,0,74.6,0Z"/>
  <path class="cls-1" d="M385.5,833.3c7.9-23.6,15.2-45.7,22.6-67.8,5.3-15.8,10.4-31.6,16-47.3,1.6-4.5,1.1-7.7-1.6-11.7-40.3-59.2-61.4-124.6-57.9-196.2,6.1-124.1,63.8-218.7,173-277.8,132.8-71.9,292.1-43.6,394.6,67.2,52.7,57.1,81,125.3,85,202.9,7,139.3-70.4,265-199.1,318.7-102.7,42.8-203.2,34.2-298.9-23.1-6-3.6-10.7-4.2-17.2-2-36.8,12.1-73.8,23.7-110.7,35.5-1.4.4-2.7.8-5.8,1.6ZM789.9,704.4c15-.2,28.1-2.6,38.6-12.3,12.2-11.4,24.3-22.9,35.9-34.8,13.1-13.3,14.2-37.9,1.6-51.3-17.2-18.3-35-36.1-53.4-53.2-17.7-16.3-44.9-9.2-54.1,13.2-8.9,21.8-28,30-49.7,20.9-26.2-10.9-46.7-29-64.4-50.8-9.6-11.9-17.6-24.7-21.8-39.6-5.6-19.7,2.6-35.7,22-42.7,24.5-8.9,31.1-37.2,12.7-56-16.4-16.7-32.9-33.2-49.6-49.6-15.9-15.6-37.5-15.7-53.3-.2-10.9,10.6-21.5,21.5-32.2,32.2-7.7,7.7-11.9,17-13.3,27.7-3.1,23.9,3.1,46.2,13.1,67.2,42.7,90.5,109.5,158.4,196.4,207.1,22.5,12.6,46.7,21,71.6,22.1Z"/>
  <path class="cls-1" d="M559.7,712.6c0,74.4,0,148.8.2,223.1,0,43.5-17.3,76.2-57.1,94.5-12,5.5-26.2,8.5-39.4,8.6-109.4.7-218.8.7-328.3.3-55.5-.2-96.1-42.5-96.2-99.8-.3-120.6,0-241.2,0-361.9v-39.7c0-132.6,0-265.3,0-397.9,0-47.7,25.2-83.6,68.1-96.5,10.2-3.1,21.3-4.4,31.9-4.4,107-.3,214-.3,321-.2,58.3,0,99.4,40.4,99.8,98.7.3,48.8.3,97.6.2,146.4l38.4-15c0-41.9,0-83.9,0-125.8,0-4.4-.1-8.8-.3-13.2C594.8,57.8,537.8,1,465.8.5,354.7-.2,243.7-.2,132.6.9c-18.2.2-37.9,4.8-54.3,12.6C25.5,38.6.2,82.2.2,140.7c0,132.7,0,265.3,0,398,0,42.1,0,84.2,0,126.2,0,94.6-.9,189.2.7,283.7,1.2,71.2,59.8,128.1,131.2,128.7,111.4.9,222.9.8,334.3-.4,18.6-.2,38.6-5.2,55.3-13.3,52.6-25.7,76.6-69.9,76.6-128.3,0-63.8,0-127.6,0-191.4l-38.5-31.4Z"/>
</svg>