<svg width="294" height="318" viewBox="0 0 294 318" fill="none" xmlns="http://www.w3.org/2000/svg">
<path d="M35.4978 14.1316C51.7778 3.81164 71.2278 -1.72836 88.3578 0.481637C110.328 3.31164 128.828 16.6116 148.768 25.1316C172.098 35.1016 195.878 31.9316 220.208 36.3616C250.378 41.8516 276.928 64.0816 287.648 92.8116C298.368 121.542 292.858 155.732 273.658 179.642C259.608 197.132 238.718 209.742 230.308 230.542C223.118 248.342 225.408 268.632 218.478 286.462C212.118 302.812 191.738 311.722 175.658 314.792C143.658 320.902 107.828 317.462 78.5078 303.022C49.3878 288.682 26.1978 259.702 25.0578 227.262C23.9978 196.962 41.3978 166.392 32.4778 137.402C27.5278 121.312 15.6778 108.892 7.28781 94.6516C-10.9922 63.6116 7.60781 31.8316 35.4978 14.1316Z" fill="#021316"/>
</svg>
