<svg width="416" height="547" viewBox="0 0 416 547" fill="none" xmlns="http://www.w3.org/2000/svg">
<path d="M415.114 448.085C411.379 491.055 395.877 530.838 354.894 542.769C305.501 557.143 252.77 530.303 203.179 530.074C157.45 529.864 109.194 556.456 64.5295 536.889C33.4718 523.278 5.60837 491.494 1.0968 455.262C-0.166412 445.202 -0.292725 435.085 0.483246 424.967C3.93008 380.393 15.3173 337.155 22.3914 293.192C29.4295 249.477 21.6696 205.381 15.7323 162.086C10.4628 123.563 2.6488 81.2988 19.3235 44.4942C33.5801 13.0347 62.3639 3.60446 92.7899 0.588313C138.429 -3.95499 181.307 19.506 227.253 13.2256C263.742 8.20503 299.708 -3.82136 336.866 1.60006C356.987 4.55893 374.925 13.7601 387.81 30.9025C414.501 66.428 405.694 117.187 398.187 157.867C391.059 196.542 383.967 235.58 390.752 274.924C400.84 333.471 420.384 387.399 415.114 448.085Z" fill="#1F90A2"/>
</svg>
