<svg width="600" height="442" viewBox="0 0 600 442" fill="none" xmlns="http://www.w3.org/2000/svg">
<path d="M544.233 282.485L552.635 274.029C582.751 243.698 599.319 203.494 599.319 160.738C599.319 72.1094 527.287 0.015625 438.733 0.015625C408.475 0.015625 378.973 8.51948 353.436 24.5351L343.759 30.6295L334.791 23.543C316.24 8.89743 293.912 1.10223 270.311 1.10223C246.709 1.10223 224.429 8.85019 205.925 23.4485L197.428 30.1571L188.035 24.8658C169.342 14.4249 148.101 8.89743 126.576 8.89743C56.9979 8.89743 0.400879 65.5425 0.400879 135.18C0.400879 204.817 56.9979 261.415 126.576 261.415C146.071 261.415 164.764 257.068 182.134 248.564L211.212 234.25L205.123 266.092C203.707 273.604 202.951 281.257 202.951 288.769C202.951 355.099 256.858 409.051 323.131 409.051C337.906 409.051 352.35 406.405 366.087 401.114L376.755 397.004L384.166 405.697C403.377 428.185 431.322 441.129 460.824 441.129C516.383 441.129 561.604 395.87 561.604 340.264C561.604 323.776 557.544 307.43 549.85 292.973L544.233 282.485Z" fill="white"/>
</svg>
