<svg width="638" height="727" viewBox="0 0 638 727" fill="none" xmlns="http://www.w3.org/2000/svg">
<path d="M237.025 726.764C224.798 726.865 212.569 726.229 200.676 724.878C171.673 721.58 130.122 711.161 96.8862 680.231C57.4814 643.562 53.1571 597.159 56.5997 559.662C34.7274 551.705 15.9393 532.86 7.22261 508.442C-3.12322 479.456 1.09609 449.291 5.92691 426.249C15.4914 380.627 31.4188 344.505 54.6106 315.83C75.1985 290.372 101.36 271.919 129.484 262.419C104.581 217.475 101.796 160.068 124.399 112.341C157.197 43.1067 234.397 1.29349 330.918 0.500396C392.242 -0.00349812 451.686 16.9767 494.009 47.0812C519.891 65.4921 537.769 88.2902 545.723 113.013C551.428 130.743 551.685 149.244 547.071 165.879C568.989 171.734 589.979 185.325 606.113 204.682C648.252 255.226 647.385 333.457 608.046 384.94C622.728 400.348 631.622 422.359 632.038 446.6C632.533 475.301 621.853 502.15 611.803 525.062C604.128 542.56 595.179 560.68 577.836 573.108C556.945 588.073 531.386 588.971 512.724 589.625C508.547 589.77 504.782 589.858 501.21 589.888C480.645 590.057 454.363 588.511 432.238 577.355C414.467 629.594 393.099 687.099 330.788 710.364C302.777 720.815 270.356 726.49 237.025 726.764Z" fill="#1F90A2"/>
</svg>
