<svg width="624" height="711" viewBox="0 0 624 711" fill="none" xmlns="http://www.w3.org/2000/svg">
<path d="M231.624 710.759C219.663 710.858 207.701 710.236 196.067 708.914C167.695 705.688 127.05 695.496 94.5374 665.24C55.9911 629.37 51.761 583.978 55.1286 547.298C33.7327 539.513 15.3538 521.079 6.82707 497.193C-3.29338 468.838 0.834008 439.331 5.5596 416.79C14.9157 372.162 30.4962 336.827 53.1828 308.777C73.3223 283.873 98.9134 265.822 126.425 256.529C102.065 212.564 99.3408 156.407 121.451 109.721C153.534 41.9942 229.052 1.09184 323.471 0.316023C383.46 -0.176894 441.609 16.4334 483.009 45.8821C508.327 63.892 525.816 86.1935 533.597 110.378C539.177 127.721 539.43 145.819 534.916 162.093C556.356 167.82 576.89 181.114 592.671 200.05C633.893 249.493 633.045 326.019 594.562 376.381C608.925 391.454 617.625 412.985 618.031 436.698C618.516 464.774 608.068 491.038 598.238 513.451C590.73 530.568 581.976 548.293 565.011 560.45C544.575 575.089 519.572 575.968 501.317 576.607C497.23 576.749 493.548 576.836 490.053 576.865C469.936 577.03 444.227 575.518 422.584 564.605C405.2 615.706 384.297 671.958 323.344 694.716C295.943 704.94 264.229 710.492 231.624 710.759Z" fill="#F59831"/>
</svg>
